<svg width="35" height="41" viewBox="0 0 35 41" fill="none" xmlns="http://www.w3.org/2000/svg">
<path d="M26 2H9C8.60218 2 8.22064 2.15804 7.93934 2.43934C7.65804 2.72064 7.5 3.10218 7.5 3.5V20.5C7.5 20.8978 7.65804 21.2794 7.93934 21.5607C8.22064 21.842 8.60218 22 9 22H26C26.3978 22 26.7794 21.842 27.0607 21.5607C27.342 21.2794 27.5 20.8978 27.5 20.5V3.5C27.5 3.10218 27.342 2.72064 27.0607 2.43934C26.7794 2.15804 26.3978 2 26 2Z" stroke="#00A0C7" stroke-width="2" stroke-linejoin="round"/>
<path d="M11.5 9.52698C13.1623 7.52698 15.1623 6.52698 17.5 6.52698C19.8373 6.52698 21.8373 7.52698 23.5 9.52698" stroke="#00A0C7" stroke-width="2" stroke-linecap="round"/>
<path d="M17.5 15.5C17.8978 15.5 18.2794 15.342 18.5607 15.0607C18.842 14.7794 19 14.3978 19 14C19 13.6022 18.842 13.2206 18.5607 12.9393C18.2794 12.658 17.8978 12.5 17.5 12.5C17.1022 12.5 16.7206 12.658 16.4393 12.9393C16.158 13.2206 16 13.6022 16 14C16 14.3978 16.158 14.7794 16.4393 15.0607C16.7206 15.342 17.1022 15.5 17.5 15.5Z" fill="#00A0C7"/>
<path d="M15 10.5L17.504 14" stroke="#00A0C7" stroke-width="2" stroke-linecap="round"/>
<path d="M4.256 38.1197C3.5378 38.1197 2.8462 38.0266 2.1812 37.8404C1.52507 37.6453 0.979767 37.3749 0.5453 37.0291L1.2103 35.5395C2.12357 36.1779 3.14323 36.4971 4.2693 36.4971C4.87223 36.4971 5.3333 36.404 5.6525 36.2178C5.98057 36.0227 6.1446 35.7523 6.1446 35.4065C6.1446 35.105 5.99387 34.8701 5.6924 34.7016C5.3998 34.5243 4.8811 34.3558 4.1363 34.1962C3.30283 34.0277 2.63783 33.8238 2.1413 33.5844C1.65363 33.3361 1.29453 33.0391 1.064 32.6933C0.842333 32.3386 0.7315 31.8997 0.7315 31.3766C0.7315 30.8091 0.886667 30.2993 1.197 29.8471C1.5162 29.3949 1.95953 29.0447 2.527 28.7964C3.09447 28.5393 3.7506 28.4107 4.4954 28.4107C5.16927 28.4107 5.81653 28.5082 6.4372 28.7033C7.05787 28.8984 7.5544 29.1644 7.9268 29.5013L7.2618 30.9909C6.42833 30.3525 5.51063 30.0333 4.5087 30.0333C3.9767 30.0333 3.5511 30.1397 3.2319 30.3525C2.9127 30.5653 2.7531 30.8535 2.7531 31.217C2.7531 31.4298 2.81073 31.6071 2.926 31.749C3.05013 31.8909 3.25407 32.0194 3.5378 32.1347C3.82153 32.2411 4.22497 32.3475 4.7481 32.4539C5.96283 32.7199 6.8362 33.0657 7.3682 33.4913C7.90907 33.9169 8.1795 34.4977 8.1795 35.2336C8.1795 36.1203 7.8337 36.8252 7.1421 37.3483C6.4505 37.8626 5.48847 38.1197 4.256 38.1197ZM12.7444 38.1064C11.6449 38.1064 10.7804 37.7961 10.1509 37.1754C9.53025 36.5547 9.21991 35.708 9.21991 34.6351C9.21991 33.9346 9.37065 33.3184 9.67211 32.7864C9.97358 32.2455 10.3947 31.8288 10.9356 31.5362C11.4853 31.2347 12.1193 31.084 12.8375 31.084C13.3252 31.084 13.7995 31.1594 14.2606 31.3101C14.7217 31.4608 15.0896 31.6648 15.3645 31.9219L14.8325 33.3184C14.5665 33.1056 14.2739 32.9416 13.9547 32.8263C13.6355 32.7022 13.3252 32.6401 13.0237 32.6401C12.474 32.6401 12.0439 32.8086 11.7336 33.1455C11.4321 33.4736 11.2814 33.9568 11.2814 34.5952C11.2814 35.2425 11.4321 35.7346 11.7336 36.0715C12.0351 36.3996 12.4651 36.5636 13.0237 36.5636C13.3252 36.5636 13.6355 36.506 13.9547 36.3907C14.2739 36.2666 14.5665 36.0981 14.8325 35.8853L15.3645 37.2818C15.0719 37.5389 14.6906 37.7429 14.2207 37.8936C13.7508 38.0355 13.2587 38.1064 12.7444 38.1064ZM23.0757 31.2569V38H21.094V37.0025C20.8901 37.3483 20.6019 37.6187 20.2295 37.8138C19.8571 38.0089 19.4359 38.1064 18.966 38.1064C18.3808 38.1064 17.8621 37.9645 17.4099 37.6808C16.9666 37.3971 16.6163 36.9936 16.3592 36.4705C16.1109 35.9385 15.9868 35.3267 15.9868 34.6351C15.9868 33.9435 16.1109 33.3273 16.3592 32.7864C16.6163 32.2455 16.971 31.8288 17.4232 31.5362C17.8754 31.2347 18.3897 31.084 18.966 31.084C19.4359 31.084 19.8571 31.186 20.2295 31.3899C20.6019 31.5938 20.8901 31.8687 21.094 32.2145V31.2569H23.0757ZM19.5512 36.5769C20.0477 36.5769 20.429 36.4084 20.695 36.0715C20.961 35.7346 21.094 35.2469 21.094 34.6085C21.094 33.9701 20.961 33.4824 20.695 33.1455C20.429 32.7997 20.0477 32.6268 19.5512 32.6268C19.0547 32.6268 18.669 32.8041 18.3941 33.1588C18.1192 33.5135 17.9818 34.0056 17.9818 34.6351C17.9818 35.2646 18.1148 35.7479 18.3808 36.0848C18.6557 36.4129 19.0458 36.5769 19.5512 36.5769ZM24.6968 28.2112H26.7051V38H24.6968V28.2112ZM34.398 34.7947H29.9558C29.9912 35.4242 30.1553 35.8853 30.4479 36.1779C30.7405 36.4616 31.1749 36.6035 31.7513 36.6035C32.0971 36.6035 32.4429 36.5459 32.7887 36.4306C33.1345 36.3153 33.4537 36.1469 33.7463 35.9252L34.2783 37.2818C33.9591 37.5389 33.5601 37.7429 33.0813 37.8936C32.6113 38.0355 32.137 38.1064 31.6582 38.1064C30.5232 38.1064 29.6321 37.7961 28.9849 37.1754C28.3376 36.5459 28.014 35.6902 28.014 34.6085C28.014 33.9258 28.1514 33.3184 28.4263 32.7864C28.71 32.2455 29.1046 31.8288 29.61 31.5362C30.1154 31.2347 30.6873 31.084 31.3257 31.084C32.2744 31.084 33.0236 31.3943 33.5734 32.015C34.1231 32.6268 34.398 33.4558 34.398 34.5021V34.7947ZM31.3789 32.4938C30.9976 32.4938 30.6873 32.6046 30.4479 32.8263C30.2173 33.048 30.0666 33.3716 29.9957 33.7972H32.669C32.5626 32.9283 32.1325 32.4938 31.3789 32.4938Z" fill="#00A0C7"/>
</svg>
