<svg width="34" height="42" viewBox="0 0 34 42" fill="none" xmlns="http://www.w3.org/2000/svg">
<mask id="mask0_945_18987" style="mask-type:alpha" maskUnits="userSpaceOnUse" x="5" y="0" width="24" height="24">
<rect x="5" width="24" height="24" fill="#D9D9D9"/>
</mask>
<g mask="url(#mask0_945_18987)">
<path d="M9 21C8.45 21 7.97917 20.8042 7.5875 20.4125C7.19583 20.0208 7 19.55 7 19V16H27V19C27 19.55 26.8042 20.0208 26.4125 20.4125C26.0208 20.8042 25.55 21 25 21H9ZM9 18V19H25V18H9ZM17 13.5C16.4 13.5 15.925 13.6667 15.575 14C15.225 14.3333 14.5833 14.5 13.65 14.5C12.7167 14.5 12.0833 14.3333 11.75 14C11.4167 13.6667 10.95 13.5 10.35 13.5C9.75 13.5 9.275 13.6667 8.925 14C8.575 14.3333 7.93333 14.5 7 14.5V12.5C7.6 12.5 8.075 12.3333 8.425 12C8.775 11.6667 9.41667 11.5 10.35 11.5C11.2833 11.5 11.9167 11.6667 12.25 12C12.5833 12.3333 13.05 12.5 13.65 12.5C14.25 12.5 14.725 12.3333 15.075 12C15.425 11.6667 16.0667 11.5 17 11.5C17.9333 11.5 18.575 11.6667 18.925 12C19.275 12.3333 19.75 12.5 20.35 12.5C20.95 12.5 21.4167 12.3333 21.75 12C22.0833 11.6667 22.7167 11.5 23.65 11.5C24.5833 11.5 25.2417 11.6667 25.625 12C26.0083 12.3333 26.4667 12.5 27 12.5V14.5C26.0667 14.5 25.4417 14.3333 25.125 14C24.8083 13.6667 24.35 13.5 23.75 13.5C23.15 13.5 22.6667 13.6667 22.3 14C21.9333 14.3333 21.2833 14.5 20.35 14.5C19.4167 14.5 18.775 14.3333 18.425 14C18.075 13.6667 17.6 13.5 17 13.5ZM7 10V9C7 7.08333 7.90417 5.60417 9.7125 4.5625C11.5208 3.52083 13.95 3 17 3C20.05 3 22.4792 3.52083 24.2875 4.5625C26.0958 5.60417 27 7.08333 27 9V10H7ZM17 5C14.9333 5 13.2042 5.25833 11.8125 5.775C10.4208 6.29167 9.53333 7.03333 9.15 8H24.85C24.4667 7.03333 23.5792 6.29167 22.1875 5.775C20.7958 5.25833 19.0667 5 17 5Z" fill="#00A0C7"/>
</g>
<path d="M0.9443 28.5304H7.3283V30.1663H2.9925V32.3608H7.0623V34.01H2.9925V38H0.9443V28.5304ZM15.1269 31.2569V38H13.1452V37.0025C12.9412 37.3483 12.6531 37.6187 12.2807 37.8138C11.9083 38.0089 11.4871 38.1064 11.0172 38.1064C10.432 38.1064 9.91328 37.9645 9.46108 37.6808C9.01775 37.3971 8.66751 36.9936 8.41038 36.4705C8.16211 35.9385 8.03798 35.3267 8.03798 34.6351C8.03798 33.9435 8.16211 33.3273 8.41038 32.7864C8.66751 32.2455 9.02218 31.8288 9.47438 31.5362C9.92658 31.2347 10.4408 31.084 11.0172 31.084C11.4871 31.084 11.9083 31.186 12.2807 31.3899C12.6531 31.5938 12.9412 31.8687 13.1452 32.2145V31.2569H15.1269ZM11.6024 36.5769C12.0989 36.5769 12.4802 36.4084 12.7462 36.0715C13.0122 35.7346 13.1452 35.2469 13.1452 34.6085C13.1452 33.9701 13.0122 33.4824 12.7462 33.1455C12.4802 32.7997 12.0989 32.6268 11.6024 32.6268C11.1058 32.6268 10.7201 32.8041 10.4453 33.1588C10.1704 33.5135 10.033 34.0056 10.033 34.6351C10.033 35.2646 10.166 35.7479 10.432 36.0848C10.7068 36.4129 11.097 36.5769 11.6024 36.5769ZM19.2749 32.7598V35.3799C19.2749 35.7523 19.3725 36.0272 19.5675 36.2045C19.7626 36.373 20.0153 36.4572 20.3256 36.4572C20.5207 36.4572 20.7424 36.4262 20.9906 36.3641V37.9202C20.6714 38.0443 20.2857 38.1064 19.8335 38.1064C19.0001 38.1064 18.3617 37.8714 17.9183 37.4015C17.4839 36.9316 17.2666 36.271 17.2666 35.4198V32.7598H15.9898V31.2569H17.2666V29.6742L19.2749 29.0225V31.2569H20.9906V32.7598H19.2749ZM24.3663 32.7598V35.3799C24.3663 35.7523 24.4639 36.0272 24.6589 36.2045C24.854 36.373 25.1067 36.4572 25.417 36.4572C25.6121 36.4572 25.8338 36.4262 26.082 36.3641V37.9202C25.7628 38.0443 25.3771 38.1064 24.9249 38.1064C24.0915 38.1064 23.4531 37.8714 23.0097 37.4015C22.5753 36.9316 22.358 36.271 22.358 35.4198V32.7598H21.0812V31.2569H22.358V29.6742L24.3663 29.0225V31.2569H26.082V32.7598H24.3663ZM33.8925 31.2569L30.7803 38.3591C30.399 39.2192 29.9158 39.8487 29.3306 40.2477C28.7542 40.6556 28.0449 40.9171 27.2026 41.0324L26.7371 39.4896C27.3577 39.3566 27.8232 39.1881 28.1336 38.9842C28.4528 38.7803 28.701 38.4832 28.8784 38.0931L29.0779 37.6542L26.2982 31.2569H28.3996L30.1286 35.6326L31.9108 31.2569H33.8925Z" fill="#00A0C7"/>
</svg>
