<svg width="35" height="41" viewBox="0 0 35 41" fill="none" xmlns="http://www.w3.org/2000/svg">
<mask id="mask0_945_19002" style="mask-type:alpha" maskUnits="userSpaceOnUse" x="5" y="0" width="25" height="24">
<rect x="5.5" width="24" height="24" fill="#D9D9D9"/>
</mask>
<g mask="url(#mask0_945_19002)">
<path d="M18.525 11.5L20 10.425L21.45 11.5L20.875 9.79995L22.35 8.72495H20.55L20 6.99995L19.45 8.72495H17.625L19.1 9.79995L18.525 11.5ZM17.5 17C18.8833 17 20.0625 16.5166 21.0375 15.55C22.0125 14.5833 22.5 13.4 22.5 12C22.5 11.8666 22.4958 11.7333 22.4875 11.6C22.4792 11.4666 22.4583 11.3333 22.425 11.2C22.2417 11.9833 21.8333 12.6291 21.2 13.1375C20.5667 13.6458 19.825 13.9 18.975 13.9C17.975 13.9 17.1333 13.5583 16.45 12.875C15.7667 12.1916 15.425 11.35 15.425 10.35C15.425 9.58329 15.6417 8.89578 16.075 8.28745C16.5083 7.67912 17.075 7.24995 17.775 6.99995H17.5C16.1 6.99995 14.9167 7.48745 13.95 8.46245C12.9833 9.43745 12.5 10.6166 12.5 12C12.5 13.4 12.9833 14.5833 13.95 15.55C14.9167 16.5166 16.1 17 17.5 17ZM17.5 23.3L14.15 20H9.5V15.35L6.2 12L9.5 8.64995V3.99995H14.15L17.5 0.699951L20.85 3.99995H25.5V8.64995L28.8 12L25.5 15.35V20H20.85L17.5 23.3ZM17.5 20.5L20 18H23.5V14.5L26 12L23.5 9.49995V5.99995H20L17.5 3.49995L15 5.99995H11.5V9.49995L9 12L11.5 14.5V18H15L17.5 20.5Z" fill="#00A0C7"/>
</g>
<path d="M9.4031 28.5304V38H7.3682V34.0233H2.9792V38H0.9443V28.5304H2.9792V32.3608H7.3682V28.5304H9.4031ZM17.9323 31.2569V38H15.9506V37.0025C15.7467 37.3483 15.4585 37.6187 15.0861 37.8138C14.7137 38.0089 14.2926 38.1064 13.8226 38.1064C13.2374 38.1064 12.7187 37.9645 12.2665 37.6808C11.8232 37.3971 11.473 36.9936 11.2158 36.4705C10.9676 35.9385 10.8434 35.3267 10.8434 34.6351C10.8434 33.9435 10.9676 33.3273 11.2158 32.7864C11.473 32.2455 11.8276 31.8288 12.2798 31.5362C12.732 31.2347 13.2463 31.084 13.8226 31.084C14.2926 31.084 14.7137 31.186 15.0861 31.3899C15.4585 31.5938 15.7467 31.8687 15.9506 32.2145V31.2569H17.9323ZM14.4078 36.5769C14.9044 36.5769 15.2856 36.4084 15.5516 36.0715C15.8176 35.7346 15.9506 35.2469 15.9506 34.6085C15.9506 33.9701 15.8176 33.4824 15.5516 33.1455C15.2856 32.7997 14.9044 32.6268 14.4078 32.6268C13.9113 32.6268 13.5256 32.8041 13.2507 33.1588C12.9759 33.5135 12.8384 34.0056 12.8384 34.6351C12.8384 35.2646 12.9714 35.7479 13.2374 36.0848C13.5123 36.4129 13.9024 36.5769 14.4078 36.5769ZM19.5534 28.2112H21.5617V38H19.5534V28.2112ZM29.9595 31.2569V38H27.9778V37.0025C27.7739 37.3483 27.4857 37.6187 27.1133 37.8138C26.7409 38.0089 26.3197 38.1064 25.8498 38.1064C25.2646 38.1064 24.7459 37.9645 24.2937 37.6808C23.8504 37.3971 23.5001 36.9936 23.243 36.4705C22.9947 35.9385 22.8706 35.3267 22.8706 34.6351C22.8706 33.9435 22.9947 33.3273 23.243 32.7864C23.5001 32.2455 23.8548 31.8288 24.307 31.5362C24.7592 31.2347 25.2735 31.084 25.8498 31.084C26.3197 31.084 26.7409 31.186 27.1133 31.3899C27.4857 31.5938 27.7739 31.8687 27.9778 32.2145V31.2569H29.9595ZM26.435 36.5769C26.9315 36.5769 27.3128 36.4084 27.5788 36.0715C27.8448 35.7346 27.9778 35.2469 27.9778 34.6085C27.9778 33.9701 27.8448 33.4824 27.5788 33.1455C27.3128 32.7997 26.9315 32.6268 26.435 32.6268C25.9385 32.6268 25.5528 32.8041 25.2779 33.1588C25.003 33.5135 24.8656 34.0056 24.8656 34.6351C24.8656 35.2646 24.9986 35.7479 25.2646 36.0848C25.5395 36.4129 25.9296 36.5769 26.435 36.5769ZM31.5805 28.2112H33.5888V38H31.5805V28.2112Z" fill="#00A0C7"/>
</svg>
