<svg width="47" height="41" viewBox="0 0 47 41" fill="none" xmlns="http://www.w3.org/2000/svg">
<mask id="mask0_259_9908" style="mask-type:alpha" maskUnits="userSpaceOnUse" x="11" y="0" width="25" height="24">
<rect x="11.5" width="24" height="24" fill="#D9D9D9"/>
</mask>
<g mask="url(#mask0_259_9908)">
<path d="M32.15 9.37495L30.75 7.97495L31.5 7.19995L28.3 3.99995L27.525 4.74995L26.1 3.32495L26.85 2.54995C27.2333 2.16662 27.7083 1.97912 28.275 1.98745C28.8417 1.99578 29.3167 2.19162 29.7 2.57495L32.925 5.79995C33.3083 6.18328 33.5 6.65412 33.5 7.21245C33.5 7.77078 33.3083 8.24162 32.925 8.62495L32.15 9.37495ZM20.15 21.3999C19.7667 21.7833 19.2958 21.9749 18.7375 21.9749C18.1792 21.9749 17.7083 21.7833 17.325 21.3999L14.1 18.1749C13.7167 17.7916 13.525 17.3208 13.525 16.7624C13.525 16.2041 13.7167 15.7333 14.1 15.3499L14.85 14.5999L16.275 16.0249L15.5 16.7749L18.725 19.9999L19.475 19.2249L20.9 20.6499L20.15 21.3999ZM30.075 12.9999L31.5 11.5749L23.925 3.99995L22.5 5.42495L30.075 12.9999ZM23.075 19.9999L24.5 18.5499L16.95 10.9999L15.5 12.4249L23.075 19.9999ZM22.925 14.1499L25.675 11.4249L24.075 9.82495L21.35 12.5749L22.925 14.1499ZM24.5 21.3999C24.1167 21.7833 23.6417 21.9749 23.075 21.9749C22.5083 21.9749 22.0333 21.7833 21.65 21.3999L14.1 13.8499C13.7167 13.4666 13.525 12.9916 13.525 12.4249C13.525 11.8583 13.7167 11.3833 14.1 10.9999L15.525 9.57495C15.9083 9.19162 16.3792 8.99995 16.9375 8.99995C17.4958 8.99995 17.9667 9.19162 18.35 9.57495L19.925 11.1499L22.675 8.39995L21.1 6.84995C20.7167 6.46662 20.525 5.99162 20.525 5.42495C20.525 4.85828 20.7167 4.38328 21.1 3.99995L22.525 2.57495C22.9083 2.19162 23.3792 1.99995 23.9375 1.99995C24.4958 1.99995 24.9667 2.19162 25.35 2.57495L32.925 10.1499C33.3083 10.5333 33.5 11.0041 33.5 11.5624C33.5 12.1208 33.3083 12.5916 32.925 12.9749L31.5 14.3999C31.1167 14.7833 30.6417 14.9749 30.075 14.9749C29.5083 14.9749 29.0333 14.7833 28.65 14.3999L27.1 12.8249L24.35 15.5749L25.925 17.1499C26.3083 17.5333 26.5 18.0041 26.5 18.5624C26.5 19.1208 26.3083 19.5916 25.925 19.9749L24.5 21.3999Z" fill="#00A0C7"/>
</g>
<path d="M0.9576 38V28.6235H5.3333C6.38843 28.6235 7.18643 28.8806 7.7273 29.3949C8.27703 29.9003 8.5519 30.5963 8.5519 31.483C8.5519 32.3608 8.27703 33.0613 7.7273 33.5844C7.18643 34.0987 6.38843 34.3558 5.3333 34.3558H3.0324V38H0.9576ZM3.0324 32.7465H5.0673C5.56383 32.7465 5.9318 32.6357 6.1712 32.414C6.41947 32.1923 6.5436 31.882 6.5436 31.483C6.5436 31.084 6.41947 30.7781 6.1712 30.5653C5.9318 30.3436 5.56383 30.2328 5.0673 30.2328H3.0324V32.7465ZM9.65632 38V33.0391C9.65632 32.7465 9.64745 32.4495 9.62972 32.148C9.62085 31.8465 9.59869 31.5495 9.56322 31.2569H11.4917L11.7178 33.2253H11.4119C11.5006 32.7465 11.6425 32.3519 11.8375 32.0416C12.0415 31.7313 12.2897 31.5007 12.5823 31.35C12.8838 31.1993 13.2252 31.1239 13.6064 31.1239C13.7749 31.1239 13.9079 31.1328 14.0054 31.1505C14.103 31.1594 14.2005 31.1815 14.298 31.217L14.2847 32.9859C14.0985 32.9061 13.9389 32.8573 13.8059 32.8396C13.6818 32.813 13.5222 32.7997 13.3271 32.7997C12.9547 32.7997 12.6444 32.8706 12.3961 33.0125C12.1567 33.1544 11.975 33.3627 11.8508 33.6376C11.7356 33.9125 11.6779 34.245 11.6779 34.6351V38H9.65632ZM18.2128 38.1463C17.4946 38.1463 16.8695 38.0044 16.3375 37.7207C15.8144 37.4281 15.4065 37.0202 15.1139 36.4971C14.8302 35.974 14.6883 35.3489 14.6883 34.6218C14.6883 33.9036 14.8302 33.2829 15.1139 32.7598C15.4065 32.2367 15.8144 31.8332 16.3375 31.5495C16.8695 31.2658 17.4946 31.1239 18.2128 31.1239C18.931 31.1239 19.5561 31.2658 20.0881 31.5495C20.6201 31.8332 21.028 32.2367 21.3117 32.7598C21.6043 33.2829 21.7506 33.9036 21.7506 34.6218C21.7506 35.3489 21.6043 35.974 21.3117 36.4971C21.028 37.0202 20.6201 37.4281 20.0881 37.7207C19.5561 38.0044 18.931 38.1463 18.2128 38.1463ZM18.2128 36.6301C18.6739 36.6301 19.0374 36.4661 19.3034 36.138C19.5783 35.8099 19.7157 35.3045 19.7157 34.6218C19.7157 33.9391 19.5783 33.4381 19.3034 33.1189C19.0374 32.7997 18.6739 32.6401 18.2128 32.6401C17.7517 32.6401 17.3838 32.7997 17.1089 33.1189C16.8429 33.4381 16.7099 33.9391 16.7099 34.6218C16.7099 35.3045 16.8429 35.8099 17.1089 36.138C17.3838 36.4661 17.7517 36.6301 18.2128 36.6301ZM26.1347 38.1463C25.2569 38.1463 24.5963 37.9291 24.153 37.4946C23.7097 37.0513 23.488 36.3907 23.488 35.5129V32.7598H22.2112V31.2569H23.488V29.6077L25.4963 29.1156V31.2569H27.2253V32.7598H25.4963V35.4065C25.4963 35.8321 25.585 36.1247 25.7623 36.2843C25.9396 36.4439 26.1657 36.5237 26.4406 36.5237C26.6091 36.5237 26.7465 36.5148 26.8529 36.4971C26.9682 36.4705 27.0879 36.435 27.212 36.3907V37.9468C27.0435 38.0177 26.8662 38.0665 26.68 38.0931C26.4938 38.1286 26.312 38.1463 26.1347 38.1463ZM31.5824 38.1463C30.412 38.1463 29.4987 37.8315 28.8426 37.202C28.1865 36.5725 27.8584 35.7168 27.8584 34.6351C27.8584 33.9346 27.9958 33.3228 28.2707 32.7997C28.5544 32.2766 28.9446 31.8687 29.4411 31.5761C29.9465 31.2746 30.5361 31.1239 31.21 31.1239C31.875 31.1239 32.4292 31.2658 32.8725 31.5495C33.3247 31.8332 33.6616 32.2322 33.8833 32.7465C34.1138 33.2519 34.2291 33.8415 34.2291 34.5154V34.9809H29.5076V33.9834H32.7661L32.54 34.1696C32.54 33.611 32.4247 33.1898 32.1942 32.9061C31.9725 32.6135 31.6489 32.4672 31.2233 32.4672C30.7534 32.4672 30.3898 32.6401 30.1327 32.9859C29.8844 33.3317 29.7603 33.8282 29.7603 34.4755V34.6883C29.7603 35.3444 29.9199 35.8321 30.2391 36.1513C30.5672 36.4705 31.0371 36.6301 31.6489 36.6301C32.0124 36.6301 32.3538 36.5858 32.673 36.4971C33.0011 36.3996 33.3114 36.2488 33.604 36.0449L34.1626 37.3749C33.8257 37.6232 33.4355 37.8138 32.9922 37.9468C32.5577 38.0798 32.0878 38.1463 31.5824 38.1463ZM35.5033 38V31.2569H37.5116V38H35.5033ZM35.4235 30.153V28.2777H37.5781V30.153H35.4235ZM39.153 38V33.0125C39.153 32.7288 39.1442 32.4406 39.1264 32.148C39.1087 31.8465 39.0821 31.5495 39.0466 31.2569H40.9751L41.1214 32.5071H40.9618C41.1835 32.0638 41.4983 31.7224 41.9061 31.483C42.314 31.2436 42.7884 31.1239 43.3292 31.1239C44.1184 31.1239 44.708 31.3544 45.0981 31.8155C45.4971 32.2677 45.6966 32.9726 45.6966 33.9302V38H43.6883V34.0233C43.6883 33.5356 43.5997 33.1898 43.4223 32.9859C43.245 32.782 42.979 32.68 42.6243 32.68C42.181 32.68 41.8263 32.8219 41.5603 33.1056C41.2943 33.3805 41.1613 33.7529 41.1613 34.2228V38H39.153Z" fill="#00A0C7"/>
</svg>
