<svg width="43" height="41" viewBox="0 0 43 41" fill="none" xmlns="http://www.w3.org/2000/svg">
<path d="M24.7995 8.4C28.3995 8.4 30.1995 6.6 30.1995 3C26.5995 3 24.7995 4.8 24.7995 8.4Z" stroke="#00A0C7" stroke-width="2" stroke-linecap="round" stroke-linejoin="round"/>
<path d="M26.0686 4.43102C24.201 3.22958 21.9551 2.76106 19.7628 3.11556C17.5706 3.47005 15.5868 4.62254 14.193 6.35138C12.7992 8.08021 12.0937 10.2633 12.2124 12.4809C12.331 14.6984 13.2653 16.7938 14.8355 18.3641C16.4058 19.9344 18.5012 20.8687 20.7188 20.9873C22.9363 21.1059 25.1195 20.4005 26.8483 19.0067C28.5771 17.6129 29.7296 15.6291 30.0841 13.4368C30.4386 11.2446 29.9701 8.99868 28.7686 7.13103" stroke="#00A0C7" stroke-width="2" stroke-linecap="round" stroke-linejoin="round"/>
<path d="M12.1996 3C14.9164 5.16724 17.1287 7.89999 18.6829 11.0084C20.2371 14.1168 21.0959 17.5263 21.1997 21C22.0097 14.862 22.5497 12.45 24.7997 8.4" stroke="#00A0C7" stroke-width="2" stroke-linecap="round" stroke-linejoin="round"/>
<path d="M10.1745 28.5304L5.91849 38H4.25599L-6.60259e-06 28.5304H2.15459L5.10719 35.4065L8.08639 28.5304H10.1745ZM16.0502 34.7947H11.608C11.6435 35.4242 11.8075 35.8853 12.1001 36.1779C12.3927 36.4616 12.8272 36.6035 13.4035 36.6035C13.7493 36.6035 14.0951 36.5459 14.4409 36.4306C14.7867 36.3153 15.1059 36.1469 15.3985 35.9252L15.9305 37.2818C15.6113 37.5389 15.2123 37.7429 14.7335 37.8936C14.2636 38.0355 13.7892 38.1064 13.3104 38.1064C12.1755 38.1064 11.2844 37.7961 10.6371 37.1754C9.98982 36.5459 9.66618 35.6902 9.66618 34.6085C9.66618 33.9258 9.80362 33.3184 10.0785 32.7864C10.3622 32.2455 10.7568 31.8288 11.2622 31.5362C11.7676 31.2347 12.3395 31.084 12.9779 31.084C13.9266 31.084 14.6759 31.3943 15.2256 32.015C15.7753 32.6268 16.0502 33.4558 16.0502 34.5021V34.7947ZM13.0311 32.4938C12.6498 32.4938 12.3395 32.6046 12.1001 32.8263C11.8696 33.048 11.7188 33.3716 11.6479 33.7972H14.3212C14.2148 32.9283 13.7848 32.4938 13.0311 32.4938ZM24.134 31.2569V37.6941C24.134 38.767 23.8237 39.5827 23.203 40.1413C22.5823 40.6999 21.6779 40.9792 20.4898 40.9792C19.4169 40.9792 18.4859 40.7708 17.6968 40.3541L18.0027 38.8645C18.8184 39.2724 19.6253 39.4763 20.4233 39.4763C20.9996 39.4763 21.4297 39.3389 21.7134 39.064C21.9971 38.798 22.139 38.3901 22.139 37.8404V36.67C21.9262 36.9981 21.6292 37.2729 21.2479 37.4946C20.8666 37.7074 20.4455 37.8138 19.9844 37.8138C19.3992 37.8138 18.8805 37.6764 18.4283 37.4015C17.9761 37.1178 17.6214 36.7232 17.3643 36.2178C17.1072 35.7035 16.9786 35.1139 16.9786 34.4489C16.9786 33.7839 17.1072 33.1987 17.3643 32.6933C17.6214 32.179 17.9761 31.7845 18.4283 31.5096C18.8805 31.2259 19.3992 31.084 19.9844 31.084C20.4543 31.084 20.8799 31.186 21.2612 31.3899C21.6425 31.5938 21.9351 31.8687 22.139 32.2145V31.2569H24.134ZM20.5696 36.2843C21.0573 36.2843 21.4385 36.1247 21.7134 35.8055C21.9971 35.4774 22.139 35.0252 22.139 34.4489C22.139 33.8814 22.0016 33.4381 21.7267 33.1189C21.4518 32.7908 21.0661 32.6268 20.5696 32.6268C20.0731 32.6268 19.6829 32.7908 19.3992 33.1189C19.1155 33.4381 18.9736 33.8814 18.9736 34.4489C18.9736 35.0164 19.1155 35.4641 19.3992 35.7922C19.6829 36.1203 20.0731 36.2843 20.5696 36.2843ZM32.4969 31.2569V38H30.5152V37.0025C30.3112 37.3483 30.0231 37.6187 29.6507 37.8138C29.2783 38.0089 28.8571 38.1064 28.3872 38.1064C27.802 38.1064 27.2833 37.9645 26.8311 37.6808C26.3877 37.3971 26.0375 36.9936 25.7804 36.4705C25.5321 35.9385 25.408 35.3267 25.408 34.6351C25.408 33.9435 25.5321 33.3273 25.7804 32.7864C26.0375 32.2455 26.3922 31.8288 26.8444 31.5362C27.2966 31.2347 27.8108 31.084 28.3872 31.084C28.8571 31.084 29.2783 31.186 29.6507 31.3899C30.0231 31.5938 30.3112 31.8687 30.5152 32.2145V31.2569H32.4969ZM28.9724 36.5769C29.4689 36.5769 29.8502 36.4084 30.1162 36.0715C30.3822 35.7346 30.5152 35.2469 30.5152 34.6085C30.5152 33.9701 30.3822 33.4824 30.1162 33.1455C29.8502 32.7997 29.4689 32.6268 28.9724 32.6268C28.4758 32.6268 28.0901 32.8041 27.8153 33.1588C27.5404 33.5135 27.403 34.0056 27.403 34.6351C27.403 35.2646 27.536 35.7479 27.802 36.0848C28.0768 36.4129 28.467 36.5769 28.9724 36.5769ZM38.2808 31.084C39.8768 31.084 40.6748 32.0283 40.6748 33.9169V38H38.6665V34.01C38.6665 33.5401 38.5779 33.1987 38.4005 32.9859C38.2321 32.7642 37.9616 32.6534 37.5892 32.6534C37.1459 32.6534 36.7912 32.7953 36.5252 33.079C36.2592 33.3627 36.1262 33.744 36.1262 34.2228V38H34.1179V33.1854C34.1179 32.4672 34.0825 31.8244 34.0115 31.2569H35.9001L36.0331 32.3209C36.2725 31.9219 36.5829 31.616 36.9641 31.4032C37.3543 31.1904 37.7932 31.084 38.2808 31.084Z" fill="#00A0C7"/>
</svg>
