<svg width="55" height="42" viewBox="0 0 55 42" fill="none" xmlns="http://www.w3.org/2000/svg">
<mask id="mask0_945_19012" style="mask-type:alpha" maskUnits="userSpaceOnUse" x="15" y="0" width="25" height="24">
<rect x="15.15" width="24" height="24" fill="#D9D9D9"/>
</mask>
<g mask="url(#mask0_945_19012)">
<path d="M35.8 9.37495L34.4 7.97495L35.15 7.19995L31.95 3.99995L31.175 4.74995L29.75 3.32495L30.5 2.54995C30.8833 2.16662 31.3583 1.97912 31.925 1.98745C32.4917 1.99578 32.9667 2.19162 33.35 2.57495L36.575 5.79995C36.9583 6.18328 37.15 6.65412 37.15 7.21245C37.15 7.77078 36.9583 8.24162 36.575 8.62495L35.8 9.37495ZM23.8 21.3999C23.4167 21.7833 22.9458 21.9749 22.3875 21.9749C21.8292 21.9749 21.3583 21.7833 20.975 21.3999L17.75 18.1749C17.3667 17.7916 17.175 17.3208 17.175 16.7624C17.175 16.2041 17.3667 15.7333 17.75 15.3499L18.5 14.5999L19.925 16.0249L19.15 16.7749L22.375 19.9999L23.125 19.2249L24.55 20.6499L23.8 21.3999ZM33.725 12.9999L35.15 11.5749L27.575 3.99995L26.15 5.42495L33.725 12.9999ZM26.725 19.9999L28.15 18.5499L20.6 10.9999L19.15 12.4249L26.725 19.9999ZM26.575 14.1499L29.325 11.4249L27.725 9.82495L25 12.5749L26.575 14.1499ZM28.15 21.3999C27.7667 21.7833 27.2917 21.9749 26.725 21.9749C26.1583 21.9749 25.6833 21.7833 25.3 21.3999L17.75 13.8499C17.3667 13.4666 17.175 12.9916 17.175 12.4249C17.175 11.8583 17.3667 11.3833 17.75 10.9999L19.175 9.57495C19.5583 9.19162 20.0292 8.99995 20.5875 8.99995C21.1458 8.99995 21.6167 9.19162 22 9.57495L23.575 11.1499L26.325 8.39995L24.75 6.84995C24.3667 6.46662 24.175 5.99162 24.175 5.42495C24.175 4.85828 24.3667 4.38328 24.75 3.99995L26.175 2.57495C26.5583 2.19162 27.0292 1.99995 27.5875 1.99995C28.1458 1.99995 28.6167 2.19162 29 2.57495L36.575 10.1499C36.9583 10.5333 37.15 11.0041 37.15 11.5624C37.15 12.1208 36.9583 12.5916 36.575 12.9749L35.15 14.3999C34.7667 14.7833 34.2917 14.9749 33.725 14.9749C33.1583 14.9749 32.6833 14.7833 32.3 14.3999L30.75 12.8249L28 15.5749L29.575 17.1499C29.9583 17.5333 30.15 18.0041 30.15 18.5624C30.15 19.1208 29.9583 19.5916 29.575 19.9749L28.15 21.3999Z" fill="#00A0C7"/>
</g>
<path d="M7.64999 31.88L4.44999 39H3.19999L-6.10948e-06 31.88H1.61999L3.83999 37.05L6.07999 31.88H7.64999ZM12.0678 36.59H8.72781C8.75447 37.0633 8.87781 37.41 9.09781 37.63C9.31781 37.8433 9.64447 37.95 10.0778 37.95C10.3378 37.95 10.5978 37.9067 10.8578 37.82C11.1178 37.7333 11.3578 37.6067 11.5778 37.44L11.9778 38.46C11.7378 38.6533 11.4378 38.8067 11.0778 38.92C10.7245 39.0267 10.3678 39.08 10.0078 39.08C9.15447 39.08 8.48447 38.8467 7.99781 38.38C7.51114 37.9067 7.26781 37.2633 7.26781 36.45C7.26781 35.9367 7.37114 35.48 7.57781 35.08C7.79114 34.6733 8.08781 34.36 8.46781 34.14C8.84781 33.9133 9.27781 33.8 9.75781 33.8C10.4711 33.8 11.0345 34.0333 11.4478 34.5C11.8611 34.96 12.0678 35.5833 12.0678 36.37V36.59ZM9.79781 34.86C9.51114 34.86 9.27781 34.9433 9.09781 35.11C8.92447 35.2767 8.81114 35.52 8.75781 35.84H10.7678C10.6878 35.1867 10.3645 34.86 9.79781 34.86ZM18.1459 33.93V38.77C18.1459 39.5767 17.9125 40.19 17.4459 40.61C16.9792 41.03 16.2992 41.24 15.4059 41.24C14.5992 41.24 13.8992 41.0833 13.3059 40.77L13.5359 39.65C14.1492 39.9567 14.7559 40.11 15.3559 40.11C15.7892 40.11 16.1125 40.0067 16.3259 39.8C16.5392 39.6 16.6459 39.2933 16.6459 38.88V38C16.4859 38.2467 16.2625 38.4533 15.9759 38.62C15.6892 38.78 15.3725 38.86 15.0259 38.86C14.5859 38.86 14.1959 38.7567 13.8559 38.55C13.5159 38.3367 13.2492 38.04 13.0559 37.66C12.8625 37.2733 12.7659 36.83 12.7659 36.33C12.7659 35.83 12.8625 35.39 13.0559 35.01C13.2492 34.6233 13.5159 34.3267 13.8559 34.12C14.1959 33.9067 14.5859 33.8 15.0259 33.8C15.3792 33.8 15.6992 33.8767 15.9859 34.03C16.2725 34.1833 16.4925 34.39 16.6459 34.65V33.93H18.1459ZM15.4659 37.71C15.8325 37.71 16.1192 37.59 16.3259 37.35C16.5392 37.1033 16.6459 36.7633 16.6459 36.33C16.6459 35.9033 16.5425 35.57 16.3359 35.33C16.1292 35.0833 15.8392 34.96 15.4659 34.96C15.0925 34.96 14.7992 35.0833 14.5859 35.33C14.3725 35.57 14.2659 35.9033 14.2659 36.33C14.2659 36.7567 14.3725 37.0933 14.5859 37.34C14.7992 37.5867 15.0925 37.71 15.4659 37.71ZM23.9037 36.59H20.5637C20.5904 37.0633 20.7137 37.41 20.9337 37.63C21.1537 37.8433 21.4804 37.95 21.9137 37.95C22.1737 37.95 22.4337 37.9067 22.6937 37.82C22.9537 37.7333 23.1937 37.6067 23.4137 37.44L23.8137 38.46C23.5737 38.6533 23.2737 38.8067 22.9137 38.92C22.5604 39.0267 22.2037 39.08 21.8437 39.08C20.9904 39.08 20.3204 38.8467 19.8337 38.38C19.3471 37.9067 19.1037 37.2633 19.1037 36.45C19.1037 35.9367 19.2071 35.48 19.4137 35.08C19.6271 34.6733 19.9237 34.36 20.3037 34.14C20.6837 33.9133 21.1137 33.8 21.5937 33.8C22.3071 33.8 22.8704 34.0333 23.2837 34.5C23.6971 34.96 23.9037 35.5833 23.9037 36.37V36.59ZM21.6337 34.86C21.3471 34.86 21.1137 34.9433 20.9337 35.11C20.7604 35.2767 20.6471 35.52 20.5937 35.84H22.6037C22.5237 35.1867 22.2004 34.86 21.6337 34.86ZM26.6541 35.06V37.03C26.6541 37.31 26.7275 37.5167 26.8741 37.65C27.0208 37.7767 27.2108 37.84 27.4441 37.84C27.5908 37.84 27.7575 37.8167 27.9441 37.77V38.94C27.7041 39.0333 27.4141 39.08 27.0741 39.08C26.4475 39.08 25.9675 38.9033 25.6341 38.55C25.3075 38.1967 25.1441 37.7 25.1441 37.06V35.06H24.1841V33.93H25.1441V32.74L26.6541 32.25V33.93H27.9441V35.06H26.6541ZM33.799 33.93V39H32.309V38.25C32.1556 38.51 31.939 38.7133 31.659 38.86C31.379 39.0067 31.0623 39.08 30.709 39.08C30.269 39.08 29.879 38.9733 29.539 38.76C29.2056 38.5467 28.9423 38.2433 28.749 37.85C28.5623 37.45 28.469 36.99 28.469 36.47C28.469 35.95 28.5623 35.4867 28.749 35.08C28.9423 34.6733 29.209 34.36 29.549 34.14C29.889 33.9133 30.2756 33.8 30.709 33.8C31.0623 33.8 31.379 33.8767 31.659 34.03C31.939 34.1833 32.1556 34.39 32.309 34.65V33.93H33.799ZM31.149 37.93C31.5223 37.93 31.809 37.8033 32.009 37.55C32.209 37.2967 32.309 36.93 32.309 36.45C32.309 35.97 32.209 35.6033 32.009 35.35C31.809 35.09 31.5223 34.96 31.149 34.96C30.7756 34.96 30.4856 35.0933 30.279 35.36C30.0723 35.6267 29.969 35.9967 29.969 36.47C29.969 36.9433 30.069 37.3067 30.269 37.56C30.4756 37.8067 30.769 37.93 31.149 37.93ZM37.9678 33.81C38.1811 33.81 38.3611 33.8433 38.5078 33.91L38.4978 35.29C38.2511 35.1767 38.0045 35.12 37.7578 35.12C37.3578 35.12 37.0511 35.23 36.8378 35.45C36.6311 35.6633 36.5278 35.9633 36.5278 36.35V39H35.0178V35.38C35.0178 34.84 34.9911 34.3567 34.9378 33.93H36.3578L36.4578 34.8C36.5845 34.48 36.7811 34.2367 37.0478 34.07C37.3211 33.8967 37.6278 33.81 37.9678 33.81ZM39.1194 33.93H40.6294V39H39.1194V33.93ZM40.6794 31.55V32.97H39.0694V31.55H40.6794ZM46.9435 33.93V39H45.4535V38.25C45.3002 38.51 45.0835 38.7133 44.8035 38.86C44.5235 39.0067 44.2068 39.08 43.8535 39.08C43.4135 39.08 43.0235 38.9733 42.6835 38.76C42.3502 38.5467 42.0868 38.2433 41.8935 37.85C41.7068 37.45 41.6135 36.99 41.6135 36.47C41.6135 35.95 41.7068 35.4867 41.8935 35.08C42.0868 34.6733 42.3535 34.36 42.6935 34.14C43.0335 33.9133 43.4202 33.8 43.8535 33.8C44.2068 33.8 44.5235 33.8767 44.8035 34.03C45.0835 34.1833 45.3002 34.39 45.4535 34.65V33.93H46.9435ZM44.2935 37.93C44.6668 37.93 44.9535 37.8033 45.1535 37.55C45.3535 37.2967 45.4535 36.93 45.4535 36.45C45.4535 35.97 45.3535 35.6033 45.1535 35.35C44.9535 35.09 44.6668 34.96 44.2935 34.96C43.9202 34.96 43.6302 35.0933 43.4235 35.36C43.2168 35.6267 43.1135 35.9967 43.1135 36.47C43.1135 36.9433 43.2135 37.3067 43.4135 37.56C43.6202 37.8067 43.9135 37.93 44.2935 37.93ZM51.2923 33.8C52.4923 33.8 53.0923 34.51 53.0923 35.93V39H51.5823V36C51.5823 35.6467 51.5157 35.39 51.3823 35.23C51.2557 35.0633 51.0523 34.98 50.7723 34.98C50.439 34.98 50.1723 35.0867 49.9723 35.3C49.7723 35.5133 49.6723 35.8 49.6723 36.16V39H48.1623V35.38C48.1623 34.84 48.1357 34.3567 48.0823 33.93H49.5023L49.6023 34.73C49.7823 34.43 50.0157 34.2 50.3023 34.04C50.5957 33.88 50.9257 33.8 51.2923 33.8Z" fill="#00A0C7"/>
</svg>
