<svg width="60" height="41" viewBox="0 0 60 41" fill="none" xmlns="http://www.w3.org/2000/svg">
<path d="M30 3C31.0609 3 32.0783 3.42143 32.8284 4.17157C33.5786 4.92172 34 5.93913 34 7C34 7.73 33.81 8.41 33.46 9H36C36.95 9 37.75 9.67 37.95 10.56C39.96 18.57 40 18.78 40 19C40 19.5304 39.7893 20.0391 39.4142 20.4142C39.0391 20.7893 38.5304 21 38 21H22C21.4696 21 20.9609 20.7893 20.5858 20.4142C20.2107 20.0391 20 19.5304 20 19C20 18.78 20.04 18.57 22.05 10.56C22.25 9.67 23.05 9 24 9H26.54C26.183 8.3942 25.9964 7.70316 26 7C26 5.93913 26.4214 4.92172 27.1716 4.17157C27.9217 3.42143 28.9391 3 30 3ZM30 5C29.4696 5 28.9609 5.21071 28.5858 5.58579C28.2107 5.96086 28 6.46957 28 7C28 7.53043 28.2107 8.03914 28.5858 8.41421C28.9609 8.78929 29.4696 9 30 9C30.5304 9 31.0391 8.78929 31.4142 8.41421C31.7893 8.03914 32 7.53043 32 7C32 6.46957 31.7893 5.96086 31.4142 5.58579C31.0391 5.21071 30.5304 5 30 5ZM24 11V19H26V16.5L27 17.5V19H29V17L27 15L29 13V11H27V12.5L26 13.5V11H24ZM33 11C31.89 11 31 11.89 31 13V17C31 18.11 31.89 19 33 19H36V14H34V17H33V13H36V11H33Z" fill="#00A0C7"/>
<path d="M11.07 30.88L8.54 38H7.29L5.63 33.29L3.96 38H2.71L0.18 30.88H1.77L3.41 35.8L5.13 30.88H6.22L7.9 35.87L9.58 30.88H11.07ZM15.8241 35.59H12.4841C12.5107 36.0633 12.6341 36.41 12.8541 36.63C13.0741 36.8433 13.4007 36.95 13.8341 36.95C14.0941 36.95 14.3541 36.9067 14.6141 36.82C14.8741 36.7333 15.1141 36.6067 15.3341 36.44L15.7341 37.46C15.4941 37.6533 15.1941 37.8067 14.8341 37.92C14.4807 38.0267 14.1241 38.08 13.7641 38.08C12.9107 38.08 12.2407 37.8467 11.7541 37.38C11.2674 36.9067 11.0241 36.2633 11.0241 35.45C11.0241 34.9367 11.1274 34.48 11.3341 34.08C11.5474 33.6733 11.8441 33.36 12.2241 33.14C12.6041 32.9133 13.0341 32.8 13.5141 32.8C14.2274 32.8 14.7907 33.0333 15.2041 33.5C15.6174 33.96 15.8241 34.5833 15.8241 35.37V35.59ZM13.5541 33.86C13.2674 33.86 13.0341 33.9433 12.8541 34.11C12.6807 34.2767 12.5674 34.52 12.5141 34.84H14.5241C14.4441 34.1867 14.1207 33.86 13.5541 33.86ZM16.7721 32.93H18.2821V38H16.7721V32.93ZM18.3321 30.55V31.97H16.7221V30.55H18.3321ZM24.6463 32.93V37.77C24.6463 38.5767 24.4129 39.19 23.9463 39.61C23.4796 40.03 22.7996 40.24 21.9063 40.24C21.0996 40.24 20.3996 40.0833 19.8063 39.77L20.0363 38.65C20.6496 38.9567 21.2563 39.11 21.8563 39.11C22.2896 39.11 22.6129 39.0067 22.8263 38.8C23.0396 38.6 23.1463 38.2933 23.1463 37.88V37C22.9863 37.2467 22.7629 37.4533 22.4763 37.62C22.1896 37.78 21.8729 37.86 21.5263 37.86C21.0863 37.86 20.6963 37.7567 20.3563 37.55C20.0163 37.3367 19.7496 37.04 19.5563 36.66C19.3629 36.2733 19.2663 35.83 19.2663 35.33C19.2663 34.83 19.3629 34.39 19.5563 34.01C19.7496 33.6233 20.0163 33.3267 20.3563 33.12C20.6963 32.9067 21.0863 32.8 21.5263 32.8C21.8796 32.8 22.1996 32.8767 22.4863 33.03C22.7729 33.1833 22.9929 33.39 23.1463 33.65V32.93H24.6463ZM21.9663 36.71C22.3329 36.71 22.6196 36.59 22.8263 36.35C23.0396 36.1033 23.1463 35.7633 23.1463 35.33C23.1463 34.9033 23.0429 34.57 22.8363 34.33C22.6296 34.0833 22.3396 33.96 21.9663 33.96C21.5929 33.96 21.2996 34.0833 21.0863 34.33C20.8729 34.57 20.7663 34.9033 20.7663 35.33C20.7663 35.7567 20.8729 36.0933 21.0863 36.34C21.2996 36.5867 21.5929 36.71 21.9663 36.71ZM28.9841 32.8C30.1841 32.8 30.7841 33.51 30.7841 34.93V38H29.2741V35C29.2741 34.6467 29.2075 34.39 29.0741 34.23C28.9475 34.0633 28.7441 33.98 28.4641 33.98C28.1308 33.98 27.8641 34.0867 27.6641 34.3C27.4641 34.5133 27.3641 34.8 27.3641 35.16V38H25.8541V30.64H27.3641V33.62C27.5441 33.3533 27.7741 33.15 28.0541 33.01C28.3341 32.87 28.6441 32.8 28.9841 32.8ZM33.887 34.06V36.03C33.887 36.31 33.9603 36.5167 34.107 36.65C34.2536 36.7767 34.4436 36.84 34.677 36.84C34.8236 36.84 34.9903 36.8167 35.177 36.77V37.94C34.937 38.0333 34.647 38.08 34.307 38.08C33.6803 38.08 33.2003 37.9033 32.867 37.55C32.5403 37.1967 32.377 36.7 32.377 36.06V34.06H31.417V32.93H32.377V31.74L33.887 31.25V32.93H35.177V34.06H33.887ZM43.8943 32.93V37.77C43.8943 38.5767 43.661 39.19 43.1943 39.61C42.7276 40.03 42.0476 40.24 41.1543 40.24C40.3476 40.24 39.6476 40.0833 39.0543 39.77L39.2843 38.65C39.8976 38.9567 40.5043 39.11 41.1043 39.11C41.5376 39.11 41.861 39.0067 42.0743 38.8C42.2876 38.6 42.3943 38.2933 42.3943 37.88V37C42.2343 37.2467 42.011 37.4533 41.7243 37.62C41.4376 37.78 41.121 37.86 40.7743 37.86C40.3343 37.86 39.9443 37.7567 39.6043 37.55C39.2643 37.3367 38.9976 37.04 38.8043 36.66C38.611 36.2733 38.5143 35.83 38.5143 35.33C38.5143 34.83 38.611 34.39 38.8043 34.01C38.9976 33.6233 39.2643 33.3267 39.6043 33.12C39.9443 32.9067 40.3343 32.8 40.7743 32.8C41.1276 32.8 41.4476 32.8767 41.7343 33.03C42.021 33.1833 42.241 33.39 42.3943 33.65V32.93H43.8943ZM41.2143 36.71C41.581 36.71 41.8676 36.59 42.0743 36.35C42.2876 36.1033 42.3943 35.7633 42.3943 35.33C42.3943 34.9033 42.291 34.57 42.0843 34.33C41.8776 34.0833 41.5876 33.96 41.2143 33.96C40.841 33.96 40.5476 34.0833 40.3343 34.33C40.121 34.57 40.0143 34.9033 40.0143 35.33C40.0143 35.7567 40.121 36.0933 40.3343 36.34C40.5476 36.5867 40.841 36.71 41.2143 36.71ZM50.1822 32.93V38H48.6922V37.25C48.5389 37.51 48.3222 37.7133 48.0422 37.86C47.7622 38.0067 47.4455 38.08 47.0922 38.08C46.6522 38.08 46.2622 37.9733 45.9222 37.76C45.5889 37.5467 45.3255 37.2433 45.1322 36.85C44.9455 36.45 44.8522 35.99 44.8522 35.47C44.8522 34.95 44.9455 34.4867 45.1322 34.08C45.3255 33.6733 45.5922 33.36 45.9322 33.14C46.2722 32.9133 46.6589 32.8 47.0922 32.8C47.4455 32.8 47.7622 32.8767 48.0422 33.03C48.3222 33.1833 48.5389 33.39 48.6922 33.65V32.93H50.1822ZM47.5322 36.93C47.9055 36.93 48.1922 36.8033 48.3922 36.55C48.5922 36.2967 48.6922 35.93 48.6922 35.45C48.6922 34.97 48.5922 34.6033 48.3922 34.35C48.1922 34.09 47.9055 33.96 47.5322 33.96C47.1589 33.96 46.8689 34.0933 46.6622 34.36C46.4555 34.6267 46.3522 34.9967 46.3522 35.47C46.3522 35.9433 46.4522 36.3067 46.6522 36.56C46.8589 36.8067 47.1522 36.93 47.5322 36.93ZM51.401 32.93H52.911V38H51.401V32.93ZM52.961 30.55V31.97H51.351V30.55H52.961ZM57.2752 32.8C58.4752 32.8 59.0752 33.51 59.0752 34.93V38H57.5652V35C57.5652 34.6467 57.4985 34.39 57.3652 34.23C57.2385 34.0633 57.0352 33.98 56.7552 33.98C56.4218 33.98 56.1552 34.0867 55.9552 34.3C55.7552 34.5133 55.6552 34.8 55.6552 35.16V38H54.1452V34.38C54.1452 33.84 54.1185 33.3567 54.0652 32.93H55.4852L55.5852 33.73C55.7652 33.43 55.9985 33.2 56.2852 33.04C56.5785 32.88 56.9085 32.8 57.2752 32.8Z" fill="#00A0C7"/>
</svg>
