<svg width="21" height="15" viewBox="0 0 21 15" fill="none" xmlns="http://www.w3.org/2000/svg">
<g clip-path="url(#clip0_224_3878)">
<rect width="21" height="15" fill="white"/>
<rect x="21" y="2" width="1" height="21" transform="rotate(90 21 2)" fill="#FF0000"/>
<rect x="21" y="6" width="1" height="21" transform="rotate(90 21 6)" fill="#FF0000"/>
<rect x="21" y="10" width="1" height="21" transform="rotate(90 21 10)" fill="#FF0000"/>
<rect x="21" y="12" width="1" height="21" transform="rotate(90 21 12)" fill="#FF0000"/>
<rect x="21" y="14" width="1" height="21" transform="rotate(90 21 14)" fill="#FF0000"/>
<rect x="21" width="1" height="21" transform="rotate(90 21 0)" fill="#FF0000"/>
<rect x="21" y="4" width="1" height="21" transform="rotate(90 21 4)" fill="#FF0000"/>
<rect x="21" y="8" width="1" height="21" transform="rotate(90 21 8)" fill="#FF0000"/>
<rect width="9" height="7" fill="#0088C2"/>
<circle cx="1.5" cy="3.5" r="0.5" fill="white"/>
<circle cx="3.5" cy="3.5" r="0.5" fill="white"/>
<circle cx="5.5" cy="3.5" r="0.5" fill="white"/>
<circle cx="7.5" cy="3.5" r="0.5" fill="white"/>
<circle cx="1.5" cy="1.5" r="0.5" fill="white"/>
<circle cx="3.5" cy="1.5" r="0.5" fill="white"/>
<circle cx="5.5" cy="1.5" r="0.5" fill="white"/>
<circle cx="7.5" cy="1.5" r="0.5" fill="white"/>
<circle cx="1.5" cy="5.5" r="0.5" fill="white"/>
<circle cx="3.5" cy="5.5" r="0.5" fill="white"/>
<circle cx="5.5" cy="5.5" r="0.5" fill="white"/>
<circle cx="7.5" cy="5.5" r="0.5" fill="white"/>
</g>
<defs>
<clipPath id="clip0_224_3878">
<rect width="21" height="15" fill="white"/>
</clipPath>
</defs>
</svg>
