<svg width="21" height="15" viewBox="0 0 21 15" fill="none" xmlns="http://www.w3.org/2000/svg">
<g clip-path="url(#clip0_224_3865)">
<rect width="21" height="15" fill="white"/>
<rect x="21" width="5" height="21" transform="rotate(90 21 0)" fill="#A8F5FF"/>
<rect x="21" y="10" width="5" height="21" transform="rotate(90 21 10)" fill="#A8F5FF"/>
<path d="M10.5 5L10.6494 6.55684L11.2725 5.12236L10.9335 6.64916L11.9695 5.47746L11.1752 6.82477L12.5225 6.03054L11.3508 7.06648L12.8776 6.72746L11.4432 7.35062L13 7.5L11.4432 7.64938L12.8776 8.27254L11.3508 7.93352L12.5225 8.96946L11.1752 8.17523L11.9695 9.52254L10.9335 8.35084L11.2725 9.87764L10.6494 8.44316L10.5 10L10.3506 8.44316L9.72746 9.87764L10.0665 8.35084L9.03054 9.52254L9.82477 8.17523L8.47746 8.96946L9.64916 7.93352L8.12236 8.27254L9.55684 7.64938L8 7.5L9.55684 7.35062L8.12236 6.72746L9.64916 7.06648L8.47746 6.03054L9.82477 6.82477L9.03054 5.47746L10.0665 6.64916L9.72746 5.12236L10.3506 6.55684L10.5 5Z" fill="#FFE600"/>
</g>
<defs>
<clipPath id="clip0_224_3865">
<rect width="21" height="15" fill="white"/>
</clipPath>
</defs>
</svg>
