<svg width="49" height="41" viewBox="0 0 49 41" fill="none" xmlns="http://www.w3.org/2000/svg">
<mask id="mask0_229_4550" style="mask-type:alpha" maskUnits="userSpaceOnUse" x="12" y="0" width="25" height="24">
<rect x="12.5" width="24" height="24" fill="#D9D9D9"/>
</mask>
<g mask="url(#mask0_229_4550)">
<path d="M24.5 22C23.1167 22 21.8167 21.7375 20.6 21.2125C19.3833 20.6875 18.325 19.975 17.425 19.075C16.525 18.175 15.8125 17.1167 15.2875 15.9C14.7625 14.6833 14.5 13.3833 14.5 12C14.5 10.6167 14.7625 9.31667 15.2875 8.1C15.8125 6.88333 16.525 5.825 17.425 4.925C18.325 4.025 19.3833 3.3125 20.6 2.7875C21.8167 2.2625 23.1167 2 24.5 2C26.9333 2 29.0625 2.7625 30.8875 4.2875C32.7125 5.8125 33.85 7.725 34.3 10.025H32.25C31.9333 8.80833 31.3625 7.72083 30.5375 6.7625C29.7125 5.80417 28.7 5.08333 27.5 4.6V5C27.5 5.55 27.3042 6.02083 26.9125 6.4125C26.5208 6.80417 26.05 7 25.5 7H23.5V9C23.5 9.28333 23.4042 9.52083 23.2125 9.7125C23.0208 9.90417 22.7833 10 22.5 10H20.5V12H22.5V15H21.5L16.7 10.2C16.65 10.5 16.6042 10.8 16.5625 11.1C16.5208 11.4 16.5 11.7 16.5 12C16.5 14.1833 17.2667 16.0583 18.8 17.625C20.3333 19.1917 22.2333 19.9833 24.5 20V22ZM33.6 21.5L30.4 18.3C30.05 18.5 29.675 18.6667 29.275 18.8C28.875 18.9333 28.45 19 28 19C26.75 19 25.6875 18.5625 24.8125 17.6875C23.9375 16.8125 23.5 15.75 23.5 14.5C23.5 13.25 23.9375 12.1875 24.8125 11.3125C25.6875 10.4375 26.75 10 28 10C29.25 10 30.3125 10.4375 31.1875 11.3125C32.0625 12.1875 32.5 13.25 32.5 14.5C32.5 14.95 32.4333 15.375 32.3 15.775C32.1667 16.175 32 16.55 31.8 16.9L35 20.1L33.6 21.5ZM28 17C28.7 17 29.2917 16.7583 29.775 16.275C30.2583 15.7917 30.5 15.2 30.5 14.5C30.5 13.8 30.2583 13.2083 29.775 12.725C29.2917 12.2417 28.7 12 28 12C27.3 12 26.7083 12.2417 26.225 12.725C25.7417 13.2083 25.5 13.8 25.5 14.5C25.5 15.2 25.7417 15.7917 26.225 16.275C26.7083 16.7583 27.3 17 28 17Z" fill="#FFFFFF"/>
</g>
<path d="M0.9443 28.5304H7.4746V30.1397H2.9659V32.3741H7.1953V33.9967H2.9659V36.3907H7.4746V38H0.9443V28.5304ZM15.6625 38H13.2951L11.6592 35.9385L10.0233 38H7.66922L10.5154 34.5287L7.84212 31.2569H10.2095L11.6592 33.1322L13.1089 31.2569H15.4896L12.8163 34.5287L15.6625 38ZM20.2994 31.084C20.8758 31.084 21.39 31.2347 21.8422 31.5362C22.2944 31.8288 22.6447 32.2455 22.8929 32.7864C23.1501 33.3273 23.2786 33.9435 23.2786 34.6351C23.2786 35.3267 23.1545 35.9385 22.9062 36.4705C22.658 36.9936 22.3077 37.3971 21.8555 37.6808C21.4033 37.9645 20.8846 38.1064 20.2994 38.1064C19.8295 38.1064 19.4083 38.0089 19.0359 37.8138C18.6635 37.6187 18.3798 37.3483 18.1847 37.0025V40.8728H16.1764V33.1854C16.1764 32.4672 16.141 31.8244 16.07 31.2569H17.9586L18.0916 32.3741C18.269 31.9751 18.5527 31.6603 18.9428 31.4298C19.3418 31.1993 19.794 31.084 20.2994 31.084ZM19.7275 36.5769C20.2241 36.5769 20.6053 36.4129 20.8713 36.0848C21.1373 35.7479 21.2703 35.2646 21.2703 34.6351C21.2703 34.0056 21.1329 33.5135 20.858 33.1588C20.592 32.8041 20.2152 32.6268 19.7275 32.6268C19.231 32.6268 18.8453 32.7997 18.5704 33.1455C18.3044 33.4824 18.1714 33.9701 18.1714 34.6085C18.1714 35.2469 18.3044 35.7346 18.5704 36.0715C18.8453 36.4084 19.231 36.5769 19.7275 36.5769ZM24.5669 28.2112H26.5752V38H24.5669V28.2112ZM31.4352 38.1064C30.717 38.1064 30.0874 37.9645 29.5466 37.6808C29.0146 37.3971 28.6023 36.9892 28.3097 36.4572C28.0259 35.9252 27.8841 35.3045 27.8841 34.5952C27.8841 33.8859 28.0259 33.2652 28.3097 32.7332C28.6023 32.2012 29.0146 31.7933 29.5466 31.5096C30.0874 31.2259 30.717 31.084 31.4352 31.084C32.1445 31.084 32.7652 31.2259 33.2972 31.5096C33.8292 31.7933 34.237 32.2012 34.5208 32.7332C34.8134 33.2652 34.9597 33.8859 34.9597 34.5952C34.9597 35.3045 34.8134 35.9252 34.5208 36.4572C34.237 36.9892 33.8292 37.3971 33.2972 37.6808C32.7652 37.9645 32.1445 38.1064 31.4352 38.1064ZM31.4352 36.5769C31.9317 36.5769 32.3085 36.4129 32.5657 36.0848C32.8317 35.7567 32.9647 35.2602 32.9647 34.5952C32.9647 33.9391 32.8317 33.447 32.5657 33.1189C32.3085 32.782 31.9317 32.6135 31.4352 32.6135C30.9298 32.6135 30.5441 32.782 30.2781 33.1189C30.0121 33.447 29.8791 33.9391 29.8791 34.5952C29.8791 35.9163 30.3978 36.5769 31.4352 36.5769ZM40.1668 31.0973C40.4506 31.0973 40.69 31.1416 40.885 31.2303L40.8717 33.0657C40.5437 32.915 40.2156 32.8396 39.8875 32.8396C39.3555 32.8396 38.9477 32.9859 38.6639 33.2785C38.3891 33.5622 38.2516 33.9612 38.2516 34.4755V38H36.2433V33.1854C36.2433 32.4672 36.2079 31.8244 36.1369 31.2569H38.0255L38.1585 32.414C38.327 31.9884 38.5886 31.6648 38.9432 31.4431C39.3068 31.2126 39.7146 31.0973 40.1668 31.0973ZM47.62 34.7947H43.1778C43.2133 35.4242 43.3773 35.8853 43.6699 36.1779C43.9625 36.4616 44.397 36.6035 44.9733 36.6035C45.3191 36.6035 45.6649 36.5459 46.0107 36.4306C46.3565 36.3153 46.6757 36.1469 46.9683 35.9252L47.5003 37.2818C47.1811 37.5389 46.7821 37.7429 46.3033 37.8936C45.8334 38.0355 45.359 38.1064 44.8802 38.1064C43.7453 38.1064 42.8542 37.7961 42.2069 37.1754C41.5597 36.5459 41.236 35.6902 41.236 34.6085C41.236 33.9258 41.3735 33.3184 41.6483 32.7864C41.9321 32.2455 42.3266 31.8288 42.832 31.5362C43.3374 31.2347 43.9093 31.084 44.5477 31.084C45.4965 31.084 46.2457 31.3943 46.7954 32.015C47.3452 32.6268 47.62 33.4558 47.62 34.5021V34.7947ZM44.6009 32.4938C44.2197 32.4938 43.9093 32.6046 43.6699 32.8263C43.4394 33.048 43.2887 33.3716 43.2177 33.7972H45.891C45.7846 32.9283 45.3546 32.4938 44.6009 32.4938Z" fill="#FFFFFF"/>
</svg>
