<svg width="38" height="41" viewBox="0 0 38 41" fill="none" xmlns="http://www.w3.org/2000/svg">
<mask id="mask0_229_4230" style="mask-type:alpha" maskUnits="userSpaceOnUse" x="7" y="0" width="24" height="24">
<rect x="7" width="24" height="24" fill="#D9D9D9"/>
</mask>
<g mask="url(#mask0_229_4230)">
<path d="M13 19H16V13H22V19H25V10L19 5.5L13 10V19ZM11 21V9L19 3L27 9V21H20V15H18V21H11Z" fill="#FFFFFF"/>
</g>
<path d="M9.4031 28.5304V38H7.3682V34.0233H2.9792V38H0.9443V28.5304H2.9792V32.3608H7.3682V28.5304H9.4031ZM14.3945 38.1064C13.6763 38.1064 13.0468 37.9645 12.5059 37.6808C11.9739 37.3971 11.5616 36.9892 11.269 36.4572C10.9853 35.9252 10.8434 35.3045 10.8434 34.5952C10.8434 33.8859 10.9853 33.2652 11.269 32.7332C11.5616 32.2012 11.9739 31.7933 12.5059 31.5096C13.0468 31.2259 13.6763 31.084 14.3945 31.084C15.1039 31.084 15.7245 31.2259 16.2565 31.5096C16.7885 31.7933 17.1964 32.2012 17.4801 32.7332C17.7727 33.2652 17.919 33.8859 17.919 34.5952C17.919 35.3045 17.7727 35.9252 17.4801 36.4572C17.1964 36.9892 16.7885 37.3971 16.2565 37.6808C15.7245 37.9645 15.1039 38.1064 14.3945 38.1064ZM14.3945 36.5769C14.8911 36.5769 15.2679 36.4129 15.525 36.0848C15.791 35.7567 15.924 35.2602 15.924 34.5952C15.924 33.9391 15.791 33.447 15.525 33.1189C15.2679 32.782 14.8911 32.6135 14.3945 32.6135C13.8891 32.6135 13.5034 32.782 13.2374 33.1189C12.9714 33.447 12.8384 33.9391 12.8384 34.5952C12.8384 35.9163 13.3571 36.5769 14.3945 36.5769ZM27.4487 31.084C28.2201 31.084 28.792 31.319 29.1644 31.7889C29.5457 32.25 29.7363 32.9593 29.7363 33.9169V38H27.728V33.9834C27.728 33.5135 27.6526 33.1765 27.5019 32.9726C27.3512 32.7598 27.1029 32.6534 26.7571 32.6534C26.3492 32.6534 26.0345 32.7953 25.8128 33.079C25.5911 33.3627 25.4803 33.7617 25.4803 34.276V38H23.472V33.9834C23.472 33.5223 23.3922 33.1854 23.2326 32.9726C23.0819 32.7598 22.838 32.6534 22.5011 32.6534C22.0932 32.6534 21.774 32.7953 21.5435 33.079C21.3218 33.3627 21.211 33.7617 21.211 34.276V38H19.2027V33.1854C19.2027 32.4672 19.1672 31.8244 19.0963 31.2569H20.9849L21.1046 32.2677C21.3085 31.8864 21.5923 31.5938 21.9558 31.3899C22.3282 31.186 22.7538 31.084 23.2326 31.084C24.2345 31.084 24.8995 31.5007 25.2276 32.3342C25.4493 31.9529 25.7552 31.6515 26.1453 31.4298C26.5443 31.1993 26.9788 31.084 27.4487 31.084ZM37.3723 34.7947H32.9301C32.9655 35.4242 33.1296 35.8853 33.4222 36.1779C33.7148 36.4616 34.1492 36.6035 34.7256 36.6035C35.0714 36.6035 35.4172 36.5459 35.763 36.4306C36.1088 36.3153 36.428 36.1469 36.7206 35.9252L37.2526 37.2818C36.9334 37.5389 36.5344 37.7429 36.0556 37.8936C35.5856 38.0355 35.1113 38.1064 34.6325 38.1064C33.4975 38.1064 32.6064 37.7961 31.9592 37.1754C31.3119 36.5459 30.9883 35.6902 30.9883 34.6085C30.9883 33.9258 31.1257 33.3184 31.4006 32.7864C31.6843 32.2455 32.0789 31.8288 32.5843 31.5362C33.0897 31.2347 33.6616 31.084 34.3 31.084C35.2487 31.084 35.9979 31.3943 36.5477 32.015C37.0974 32.6268 37.3723 33.4558 37.3723 34.5021V34.7947ZM34.3532 32.4938C33.9719 32.4938 33.6616 32.6046 33.4222 32.8263C33.1916 33.048 33.0409 33.3716 32.97 33.7972H35.6433C35.5369 32.9283 35.1068 32.4938 34.3532 32.4938Z" fill="#FFFFFF"/>
</svg>
