<svg width="83" height="41" viewBox="0 0 83 41" fill="none" xmlns="http://www.w3.org/2000/svg">
<mask id="mask0_229_4690" style="mask-type:alpha" maskUnits="userSpaceOnUse" x="29" y="0" width="25" height="24">
<rect x="29.5" width="24" height="24" fill="#D9D9D9"/>
</mask>
<g mask="url(#mask0_229_4690)">
<path d="M31.5 21V9H37.5V3H45.5V11H51.5V21H31.5Z" fill="#00C9A7"/>
</g>
<path d="M0.9443 28.5304H3.0191V36.3109H7.2485V38H0.9443V28.5304ZM14.37 34.7947H9.92783C9.96329 35.4242 10.1273 35.8853 10.4199 36.1779C10.7125 36.4616 11.147 36.6035 11.7233 36.6035C12.0691 36.6035 12.4149 36.5459 12.7607 36.4306C13.1065 36.3153 13.4257 36.1469 13.7183 35.9252L14.2503 37.2818C13.9311 37.5389 13.5321 37.7429 13.0533 37.8936C12.5834 38.0355 12.109 38.1064 11.6302 38.1064C10.4953 38.1064 9.60419 37.7961 8.95693 37.1754C8.30966 36.5459 7.98603 35.6902 7.98603 34.6085C7.98603 33.9258 8.12346 33.3184 8.39833 32.7864C8.68206 32.2455 9.07663 31.8288 9.58203 31.5362C10.0874 31.2347 10.6593 31.084 11.2977 31.084C12.2465 31.084 12.9957 31.3943 13.5454 32.015C14.0952 32.6268 14.37 33.4558 14.37 34.5021V34.7947ZM11.3509 32.4938C10.9697 32.4938 10.6593 32.6046 10.4199 32.8263C10.1894 33.048 10.0387 33.3716 9.96773 33.7972H12.641C12.5346 32.9283 12.1046 32.4938 11.3509 32.4938ZM22.3873 31.2569V38H20.4056V37.0025C20.2017 37.3483 19.9135 37.6187 19.5411 37.8138C19.1687 38.0089 18.7476 38.1064 18.2776 38.1064C17.6924 38.1064 17.1737 37.9645 16.7215 37.6808C16.2782 37.3971 15.928 36.9936 15.6708 36.4705C15.4226 35.9385 15.2984 35.3267 15.2984 34.6351C15.2984 33.9435 15.4226 33.3273 15.6708 32.7864C15.928 32.2455 16.2826 31.8288 16.7348 31.5362C17.187 31.2347 17.7013 31.084 18.2776 31.084C18.7476 31.084 19.1687 31.186 19.5411 31.3899C19.9135 31.5938 20.2017 31.8687 20.4056 32.2145V31.2569H22.3873ZM18.8628 36.5769C19.3594 36.5769 19.7406 36.4084 20.0066 36.0715C20.2726 35.7346 20.4056 35.2469 20.4056 34.6085C20.4056 33.9701 20.2726 33.4824 20.0066 33.1455C19.7406 32.7997 19.3594 32.6268 18.8628 32.6268C18.3663 32.6268 17.9806 32.8041 17.7057 33.1588C17.4309 33.5135 17.2934 34.0056 17.2934 34.6351C17.2934 35.2646 17.4264 35.7479 17.6924 36.0848C17.9673 36.4129 18.3574 36.5769 18.8628 36.5769ZM30.7648 28.2112V38H28.7831V37.0025C28.5791 37.3483 28.291 37.6187 27.9186 37.8138C27.5462 38.0089 27.125 38.1064 26.6551 38.1064C26.0787 38.1064 25.5645 37.9601 25.1123 37.6675C24.6601 37.366 24.3054 36.9493 24.0483 36.4173C23.8 35.8764 23.6759 35.2602 23.6759 34.5686C23.6759 33.877 23.8 33.2696 24.0483 32.7465C24.3054 32.2145 24.6556 31.8066 25.099 31.5229C25.5512 31.2303 26.0699 31.084 26.6551 31.084C27.1073 31.084 27.5196 31.1815 27.892 31.3766C28.2644 31.5628 28.5525 31.8244 28.7565 32.1613V28.2112H30.7648ZM27.2403 36.5769C27.7368 36.5769 28.1181 36.4084 28.3841 36.0715C28.6501 35.7257 28.7831 35.2336 28.7831 34.5952C28.7831 33.9657 28.6456 33.4824 28.3708 33.1455C28.1048 32.7997 27.7279 32.6268 27.2403 32.6268C26.7437 32.6268 26.358 32.7953 26.0832 33.1322C25.8083 33.4691 25.6709 33.9479 25.6709 34.5686C25.6709 35.207 25.8083 35.7035 26.0832 36.0582C26.358 36.404 26.7437 36.5769 27.2403 36.5769ZM38.4373 34.7947H33.9951C34.0306 35.4242 34.1946 35.8853 34.4872 36.1779C34.7798 36.4616 35.2143 36.6035 35.7906 36.6035C36.1364 36.6035 36.4822 36.5459 36.828 36.4306C37.1738 36.3153 37.493 36.1469 37.7856 35.9252L38.3176 37.2818C37.9984 37.5389 37.5994 37.7429 37.1206 37.8936C36.6507 38.0355 36.1763 38.1064 35.6975 38.1064C34.5626 38.1064 33.6715 37.7961 33.0242 37.1754C32.3769 36.5459 32.0533 35.6902 32.0533 34.6085C32.0533 33.9258 32.1907 33.3184 32.4656 32.7864C32.7493 32.2455 33.1439 31.8288 33.6493 31.5362C34.1547 31.2347 34.7266 31.084 35.365 31.084C36.3137 31.084 37.063 31.3943 37.6127 32.015C38.1624 32.6268 38.4373 33.4558 38.4373 34.5021V34.7947ZM35.4182 32.4938C35.0369 32.4938 34.7266 32.6046 34.4872 32.8263C34.2567 33.048 34.1059 33.3716 34.035 33.7972H36.7083C36.6019 32.9283 36.1719 32.4938 35.4182 32.4938ZM43.6217 31.0973C43.9054 31.0973 44.1448 31.1416 44.3399 31.2303L44.3266 33.0657C43.9985 32.915 43.6705 32.8396 43.3424 32.8396C42.8104 32.8396 42.4025 32.9859 42.1188 33.2785C41.8439 33.5622 41.7065 33.9612 41.7065 34.4755V38H39.6982V33.1854C39.6982 32.4672 39.6627 31.8244 39.5918 31.2569H41.4804L41.6134 32.414C41.7819 31.9884 42.0434 31.6648 42.3981 31.4431C42.7616 31.2126 43.1695 31.0973 43.6217 31.0973ZM49.2763 31.084C49.8615 31.084 50.3802 31.2303 50.8324 31.5229C51.2846 31.8066 51.6348 32.2145 51.8831 32.7465C52.1314 33.2696 52.2555 33.877 52.2555 34.5686C52.2555 35.2602 52.1269 35.8764 51.8698 36.4173C51.6215 36.9493 51.2713 37.366 50.8191 37.6675C50.3669 37.9601 49.8526 38.1064 49.2763 38.1064C48.8064 38.1064 48.3808 38.0089 47.9995 37.8138C47.6271 37.6099 47.3434 37.335 47.1483 36.9892V38H45.1533V28.2112H47.1616V32.2012C47.3567 31.8554 47.6404 31.585 48.0128 31.3899C48.3941 31.186 48.8152 31.084 49.2763 31.084ZM48.7044 36.5769C49.2009 36.5769 49.5822 36.404 49.8482 36.0582C50.1142 35.7124 50.2472 35.2159 50.2472 34.5686C50.2472 33.9479 50.1142 33.4691 49.8482 33.1322C49.5822 32.7953 49.2009 32.6268 48.7044 32.6268C48.2079 32.6268 47.8222 32.7997 47.5473 33.1455C47.2813 33.4824 47.1483 33.9657 47.1483 34.5952C47.1483 35.2336 47.2813 35.7257 47.5473 36.0715C47.8222 36.4084 48.2079 36.5769 48.7044 36.5769ZM56.7623 38.1064C56.0441 38.1064 55.4146 37.9645 54.8737 37.6808C54.3417 37.3971 53.9294 36.9892 53.6368 36.4572C53.3531 35.9252 53.2112 35.3045 53.2112 34.5952C53.2112 33.8859 53.3531 33.2652 53.6368 32.7332C53.9294 32.2012 54.3417 31.7933 54.8737 31.5096C55.4146 31.2259 56.0441 31.084 56.7623 31.084C57.4717 31.084 58.0923 31.2259 58.6243 31.5096C59.1563 31.7933 59.5642 32.2012 59.8479 32.7332C60.1405 33.2652 60.2868 33.8859 60.2868 34.5952C60.2868 35.3045 60.1405 35.9252 59.8479 36.4572C59.5642 36.9892 59.1563 37.3971 58.6243 37.6808C58.0923 37.9645 57.4717 38.1064 56.7623 38.1064ZM56.7623 36.5769C57.2589 36.5769 57.6357 36.4129 57.8928 36.0848C58.1588 35.7567 58.2918 35.2602 58.2918 34.5952C58.2918 33.9391 58.1588 33.447 57.8928 33.1189C57.6357 32.782 57.2589 32.6135 56.7623 32.6135C56.2569 32.6135 55.8712 32.782 55.6052 33.1189C55.3392 33.447 55.2062 33.9391 55.2062 34.5952C55.2062 35.9163 55.7249 36.5769 56.7623 36.5769ZM68.3269 31.2569V38H66.3452V37.0025C66.1412 37.3483 65.8531 37.6187 65.4807 37.8138C65.1083 38.0089 64.6871 38.1064 64.2172 38.1064C63.632 38.1064 63.1133 37.9645 62.6611 37.6808C62.2177 37.3971 61.8675 36.9936 61.6104 36.4705C61.3621 35.9385 61.238 35.3267 61.238 34.6351C61.238 33.9435 61.3621 33.3273 61.6104 32.7864C61.8675 32.2455 62.2222 31.8288 62.6744 31.5362C63.1266 31.2347 63.6408 31.084 64.2172 31.084C64.6871 31.084 65.1083 31.186 65.4807 31.3899C65.8531 31.5938 66.1412 31.8687 66.3452 32.2145V31.2569H68.3269ZM64.8024 36.5769C65.2989 36.5769 65.6802 36.4084 65.9462 36.0715C66.2122 35.7346 66.3452 35.2469 66.3452 34.6085C66.3452 33.9701 66.2122 33.4824 65.9462 33.1455C65.6802 32.7997 65.2989 32.6268 64.8024 32.6268C64.3058 32.6268 63.9201 32.8041 63.6453 33.1588C63.3704 33.5135 63.233 34.0056 63.233 34.6351C63.233 35.2646 63.366 35.7479 63.632 36.0848C63.9068 36.4129 64.297 36.5769 64.8024 36.5769ZM73.8714 31.0973C74.1552 31.0973 74.3946 31.1416 74.5896 31.2303L74.5763 33.0657C74.2483 32.915 73.9202 32.8396 73.5921 32.8396C73.0601 32.8396 72.6523 32.9859 72.3685 33.2785C72.0937 33.5622 71.9562 33.9612 71.9562 34.4755V38H69.9479V33.1854C69.9479 32.4672 69.9125 31.8244 69.8415 31.2569H71.7301L71.8631 32.414C72.0316 31.9884 72.2932 31.6648 72.6478 31.4431C73.0114 31.2126 73.4192 31.0973 73.8714 31.0973ZM82.0295 28.2112V38H80.0478V37.0025C79.8439 37.3483 79.5557 37.6187 79.1833 37.8138C78.8109 38.0089 78.3897 38.1064 77.9198 38.1064C77.3435 38.1064 76.8292 37.9601 76.377 37.6675C75.9248 37.366 75.5701 36.9493 75.313 36.4173C75.0647 35.8764 74.9406 35.2602 74.9406 34.5686C74.9406 33.877 75.0647 33.2696 75.313 32.7465C75.5701 32.2145 75.9204 31.8066 76.3637 31.5229C76.8159 31.2303 77.3346 31.084 77.9198 31.084C78.372 31.084 78.7843 31.1815 79.1567 31.3766C79.5291 31.5628 79.8173 31.8244 80.0212 32.1613V28.2112H82.0295ZM78.505 36.5769C79.0015 36.5769 79.3828 36.4084 79.6488 36.0715C79.9148 35.7257 80.0478 35.2336 80.0478 34.5952C80.0478 33.9657 79.9104 33.4824 79.6355 33.1455C79.3695 32.7997 78.9927 32.6268 78.505 32.6268C78.0085 32.6268 77.6228 32.7953 77.3479 33.1322C77.073 33.4691 76.9356 33.9479 76.9356 34.5686C76.9356 35.207 77.073 35.7035 77.3479 36.0582C77.6228 36.404 78.0085 36.5769 78.505 36.5769Z" fill="#00C9A7"/>
</svg>
