<svg width="30" height="41" viewBox="0 0 30 41" fill="none" xmlns="http://www.w3.org/2000/svg">
<mask id="mask0_229_4613" style="mask-type:alpha" maskUnits="userSpaceOnUse" x="3" y="0" width="24" height="24">
<rect x="3" width="24" height="24" fill="#D9D9D9"/>
</mask>
<g mask="url(#mask0_229_4613)">
<path d="M8 8H22V6H8V8ZM8 22C7.45 22 6.97917 21.8042 6.5875 21.4125C6.19583 21.0208 6 20.55 6 20V6C6 5.45 6.19583 4.97917 6.5875 4.5875C6.97917 4.19583 7.45 4 8 4H9V2H11V4H19V2H21V4H22C22.55 4 23.0208 4.19583 23.4125 4.5875C23.8042 4.97917 24 5.45 24 6V11.675C23.6833 11.525 23.3583 11.4 23.025 11.3C22.6917 11.2 22.35 11.125 22 11.075V10H8V20H14.3C14.4167 20.3667 14.5542 20.7167 14.7125 21.05C14.8708 21.3833 15.0583 21.7 15.275 22H8ZM21 23C19.6167 23 18.4375 22.5125 17.4625 21.5375C16.4875 20.5625 16 19.3833 16 18C16 16.6167 16.4875 15.4375 17.4625 14.4625C18.4375 13.4875 19.6167 13 21 13C22.3833 13 23.5625 13.4875 24.5375 14.4625C25.5125 15.4375 26 16.6167 26 18C26 19.3833 25.5125 20.5625 24.5375 21.5375C23.5625 22.5125 22.3833 23 21 23ZM22.675 20.375L23.375 19.675L21.5 17.8V15H20.5V18.2L22.675 20.375Z" fill="#FFFFFF"/>
<circle cx="11" cy="13" r="1" fill="#FFFFFF"/>
<circle cx="11" cy="17" r="1" fill="#FFFFFF"/>
<circle cx="15" cy="17" r="1" fill="#FFFFFF"/>
<circle cx="15" cy="13" r="1" fill="#FFFFFF"/>
<circle cx="19" cy="13" r="1" fill="#FFFFFF"/>
</g>
<path d="M0.9443 28.5304H5.2402C6.28647 28.5304 7.09777 28.7831 7.6741 29.2885C8.2593 29.7939 8.5519 30.4811 8.5519 31.35C8.5519 32.2101 8.2593 32.8972 7.6741 33.4115C7.0889 33.9169 6.2776 34.1696 5.2402 34.1696H3.0191V38H0.9443V28.5304ZM4.9742 32.5869C6.05593 32.5869 6.5968 32.179 6.5968 31.3633C6.5968 30.5387 6.05593 30.1264 4.9742 30.1264H3.0191V32.5869H4.9742ZM9.7862 28.2112H11.7945V38H9.7862V28.2112ZM20.1923 31.2569V38H18.2106V37.0025C18.0067 37.3483 17.7185 37.6187 17.3461 37.8138C16.9737 38.0089 16.5525 38.1064 16.0826 38.1064C15.4974 38.1064 14.9787 37.9645 14.5265 37.6808C14.0832 37.3971 13.7329 36.9936 13.4758 36.4705C13.2275 35.9385 13.1034 35.3267 13.1034 34.6351C13.1034 33.9435 13.2275 33.3273 13.4758 32.7864C13.7329 32.2455 14.0876 31.8288 14.5398 31.5362C14.992 31.2347 15.5063 31.084 16.0826 31.084C16.5525 31.084 16.9737 31.186 17.3461 31.3899C17.7185 31.5938 18.0067 31.8687 18.2106 32.2145V31.2569H20.1923ZM16.6678 36.5769C17.1643 36.5769 17.5456 36.4084 17.8116 36.0715C18.0776 35.7346 18.2106 35.2469 18.2106 34.6085C18.2106 33.9701 18.0776 33.4824 17.8116 33.1455C17.5456 32.7997 17.1643 32.6268 16.6678 32.6268C16.1713 32.6268 15.7856 32.8041 15.5107 33.1588C15.2358 33.5135 15.0984 34.0056 15.0984 34.6351C15.0984 35.2646 15.2314 35.7479 15.4974 36.0848C15.7723 36.4129 16.1624 36.5769 16.6678 36.5769ZM25.9763 31.084C27.5723 31.084 28.3703 32.0283 28.3703 33.9169V38H26.362V34.01C26.362 33.5401 26.2733 33.1987 26.096 32.9859C25.9275 32.7642 25.6571 32.6534 25.2847 32.6534C24.8413 32.6534 24.4867 32.7953 24.2207 33.079C23.9547 33.3627 23.8217 33.744 23.8217 34.2228V38H21.8134V33.1854C21.8134 32.4672 21.7779 31.8244 21.707 31.2569H23.5956L23.7286 32.3209C23.968 31.9219 24.2783 31.616 24.6596 31.4032C25.0497 31.1904 25.4886 31.084 25.9763 31.084Z" fill="#FFFFFF"/>
</svg>
