<svg width="25" height="41" viewBox="0 0 25 41" fill="none" xmlns="http://www.w3.org/2000/svg">
<mask id="mask0_245_3956" style="mask-type:alpha" maskUnits="userSpaceOnUse" x="0" y="0" width="25" height="24">
<rect x="0.452148" width="24" height="24" fill="#D9D9D9"/>
</mask>
<g mask="url(#mask0_245_3956)">
<path d="M6.30215 17.1C7.15215 16.45 8.10215 15.9375 9.15215 15.5625C10.2021 15.1875 11.3021 15 12.4521 15C13.6021 15 14.7021 15.1875 15.7521 15.5625C16.8021 15.9375 17.7521 16.45 18.6021 17.1C19.1855 16.4167 19.6396 15.6417 19.9646 14.775C20.2896 13.9083 20.4521 12.9833 20.4521 12C20.4521 9.78333 19.673 7.89583 18.1146 6.3375C16.5563 4.77917 14.6688 4 12.4521 4C10.2355 4 8.34798 4.77917 6.78965 6.3375C5.23132 7.89583 4.45215 9.78333 4.45215 12C4.45215 12.9833 4.61465 13.9083 4.93965 14.775C5.26465 15.6417 5.71882 16.4167 6.30215 17.1ZM12.4521 13C11.4688 13 10.6396 12.6625 9.96465 11.9875C9.28965 11.3125 8.95215 10.4833 8.95215 9.5C8.95215 8.51667 9.28965 7.6875 9.96465 7.0125C10.6396 6.3375 11.4688 6 12.4521 6C13.4355 6 14.2646 6.3375 14.9396 7.0125C15.6146 7.6875 15.9521 8.51667 15.9521 9.5C15.9521 10.4833 15.6146 11.3125 14.9396 11.9875C14.2646 12.6625 13.4355 13 12.4521 13ZM12.4521 22C11.0688 22 9.76882 21.7375 8.55215 21.2125C7.33548 20.6875 6.27715 19.975 5.37715 19.075C4.47715 18.175 3.76465 17.1167 3.23965 15.9C2.71465 14.6833 2.45215 13.3833 2.45215 12C2.45215 10.6167 2.71465 9.31667 3.23965 8.1C3.76465 6.88333 4.47715 5.825 5.37715 4.925C6.27715 4.025 7.33548 3.3125 8.55215 2.7875C9.76882 2.2625 11.0688 2 12.4521 2C13.8355 2 15.1355 2.2625 16.3521 2.7875C17.5688 3.3125 18.6271 4.025 19.5271 4.925C20.4271 5.825 21.1396 6.88333 21.6646 8.1C22.1896 9.31667 22.4521 10.6167 22.4521 12C22.4521 13.3833 22.1896 14.6833 21.6646 15.9C21.1396 17.1167 20.4271 18.175 19.5271 19.075C18.6271 19.975 17.5688 20.6875 16.3521 21.2125C15.1355 21.7375 13.8355 22 12.4521 22ZM12.4521 20C13.3355 20 14.1688 19.8708 14.9521 19.6125C15.7355 19.3542 16.4521 18.9833 17.1021 18.5C16.4521 18.0167 15.7355 17.6458 14.9521 17.3875C14.1688 17.1292 13.3355 17 12.4521 17C11.5688 17 10.7355 17.1292 9.95215 17.3875C9.16882 17.6458 8.45215 18.0167 7.80215 18.5C8.45215 18.9833 9.16882 19.3542 9.95215 19.6125C10.7355 19.8708 11.5688 20 12.4521 20ZM12.4521 11C12.8855 11 13.2438 10.8583 13.5271 10.575C13.8105 10.2917 13.9521 9.93333 13.9521 9.5C13.9521 9.06667 13.8105 8.70833 13.5271 8.425C13.2438 8.14167 12.8855 8 12.4521 8C12.0188 8 11.6605 8.14167 11.3771 8.425C11.0938 8.70833 10.9521 9.06667 10.9521 9.5C10.9521 9.93333 11.0938 10.2917 11.3771 10.575C11.6605 10.8583 12.0188 11 12.4521 11Z" fill="#FFFFFF"/>
</g>
<path d="M3.68405 38V33.5445L4.10965 34.7282L-5.15936e-05 28.6235H2.39395L4.97415 32.6401H4.54855L7.12875 28.6235H9.44295L5.34655 34.7282L5.75885 33.5445V38H3.68405ZM11.8721 38.1463C11.1539 38.1463 10.5288 38.0044 9.99677 37.7207C9.47364 37.4281 9.06577 37.0202 8.77317 36.4971C8.48944 35.974 8.34757 35.3489 8.34757 34.6218C8.34757 33.9036 8.48944 33.2829 8.77317 32.7598C9.06577 32.2367 9.47364 31.8332 9.99677 31.5495C10.5288 31.2658 11.1539 31.1239 11.8721 31.1239C12.5903 31.1239 13.2154 31.2658 13.7474 31.5495C14.2794 31.8332 14.6872 32.2367 14.971 32.7598C15.2636 33.2829 15.4099 33.9036 15.4099 34.6218C15.4099 35.3489 15.2636 35.974 14.971 36.4971C14.6872 37.0202 14.2794 37.4281 13.7474 37.7207C13.2154 38.0044 12.5903 38.1463 11.8721 38.1463ZM11.8721 36.6301C12.3331 36.6301 12.6967 36.4661 12.9627 36.138C13.2375 35.8099 13.375 35.3045 13.375 34.6218C13.375 33.9391 13.2375 33.4381 12.9627 33.1189C12.6967 32.7997 12.3331 32.6401 11.8721 32.6401C11.411 32.6401 11.043 32.7997 10.7682 33.1189C10.5022 33.4381 10.3692 33.9391 10.3692 34.6218C10.3692 35.3045 10.5022 35.8099 10.7682 36.138C11.043 36.4661 11.411 36.6301 11.8721 36.6301ZM19.154 38.1463C18.3117 38.1463 17.6866 37.9158 17.2787 37.4547C16.8709 36.9848 16.6669 36.2754 16.6669 35.3267V31.2569H18.6752V35.3267C18.6752 35.7523 18.7595 36.0671 18.9279 36.271C19.1053 36.4749 19.3757 36.5769 19.7392 36.5769C20.1382 36.5769 20.4663 36.4395 20.7234 36.1646C20.9894 35.8809 21.1224 35.504 21.1224 35.0341V31.2569H23.1307V38H21.1756V36.7099H21.3618C21.1579 37.1621 20.8653 37.5168 20.484 37.7739C20.1116 38.0222 19.6683 38.1463 19.154 38.1463Z" fill="#FFFFFF"/>
</svg>
