<svg width="26" height="37" viewBox="0 0 26 37" fill="none" xmlns="http://www.w3.org/2000/svg">
<path fill-rule="evenodd" clip-rule="evenodd" d="M4.96115 16.6247C7.01416 14.9822 9.61845 14 12.4521 14C15.2858 14 17.8901 14.9822 19.9432 16.6247C21.5044 14.8606 22.4521 12.541 22.4521 10C22.4521 4.47715 17.975 0 12.4521 0C6.9293 0 2.45215 4.47715 2.45215 10C2.45215 12.541 3.39988 14.8606 4.96115 16.6247ZM9.45215 7C9.45215 8.65685 10.7953 10 12.4521 10C14.109 10 15.4521 8.65685 15.4521 7C15.4521 5.34315 14.109 4 12.4521 4C10.7953 4 9.45215 5.34315 9.45215 7Z" fill="#FFFFFF"/>
<circle cx="12.4521" cy="10" r="9" stroke="#FFFFFF" stroke-width="2"/>
<path d="M3.68405 34V29.5445L4.10965 30.7282L-5.15936e-05 24.6235H2.39395L4.97415 28.6401H4.54855L7.12875 24.6235H9.44295L5.34655 30.7282L5.75885 29.5445V34H3.68405ZM11.8721 34.1463C11.1539 34.1463 10.5288 34.0044 9.99677 33.7207C9.47364 33.4281 9.06577 33.0202 8.77317 32.4971C8.48944 31.974 8.34757 31.3489 8.34757 30.6218C8.34757 29.9036 8.48944 29.2829 8.77317 28.7598C9.06577 28.2367 9.47364 27.8332 9.99677 27.5495C10.5288 27.2658 11.1539 27.1239 11.8721 27.1239C12.5903 27.1239 13.2154 27.2658 13.7474 27.5495C14.2794 27.8332 14.6872 28.2367 14.971 28.7598C15.2636 29.2829 15.4099 29.9036 15.4099 30.6218C15.4099 31.3489 15.2636 31.974 14.971 32.4971C14.6872 33.0202 14.2794 33.4281 13.7474 33.7207C13.2154 34.0044 12.5903 34.1463 11.8721 34.1463ZM11.8721 32.6301C12.3331 32.6301 12.6967 32.4661 12.9627 32.138C13.2375 31.8099 13.375 31.3045 13.375 30.6218C13.375 29.9391 13.2375 29.4381 12.9627 29.1189C12.6967 28.7997 12.3331 28.6401 11.8721 28.6401C11.411 28.6401 11.043 28.7997 10.7682 29.1189C10.5022 29.4381 10.3692 29.9391 10.3692 30.6218C10.3692 31.3045 10.5022 31.8099 10.7682 32.138C11.043 32.4661 11.411 32.6301 11.8721 32.6301ZM19.154 34.1463C18.3117 34.1463 17.6866 33.9158 17.2787 33.4547C16.8709 32.9848 16.6669 32.2754 16.6669 31.3267V27.2569H18.6752V31.3267C18.6752 31.7523 18.7595 32.0671 18.9279 32.271C19.1053 32.4749 19.3757 32.5769 19.7392 32.5769C20.1382 32.5769 20.4663 32.4395 20.7234 32.1646C20.9894 31.8809 21.1224 31.504 21.1224 31.0341V27.2569H23.1307V34H21.1756V32.7099H21.3618C21.1579 33.1621 20.8653 33.5168 20.484 33.7739C20.1116 34.0222 19.6683 34.1463 19.154 34.1463Z" fill="#FFFFFF"/>
</svg>
