<svg width="24" height="24" viewBox="0 0 24 24" fill="none" xmlns="http://www.w3.org/2000/svg">
<mask id="mask0_1515_29109" style="mask-type:alpha" maskUnits="userSpaceOnUse" x="0" y="0" width="24" height="24">
<rect width="24" height="24" fill="#D9D9D9"/>
</mask>
<g mask="url(#mask0_1515_29109)">
<path d="M8 18C7.45 18 6.97917 17.8042 6.5875 17.4125C6.19583 17.0208 6 16.55 6 16V4C6 3.45 6.19583 2.97917 6.5875 2.5875C6.97917 2.19583 7.45 2 8 2H20C20.55 2 21.0208 2.19583 21.4125 2.5875C21.8042 2.97917 22 3.45 22 4V16C22 16.55 21.8042 17.0208 21.4125 17.4125C21.0208 17.8042 20.55 18 20 18H8ZM8 16H20V4H8V16ZM4 22C3.45 22 2.97917 21.8042 2.5875 21.4125C2.19583 21.0208 2 20.55 2 20V6H4V20H18V22H4Z" fill="#00A0C7"/>
<path d="M13.998 6.18702C14.7227 6.18702 15.31 6.77429 15.31 7.499C15.31 8.22371 14.7227 8.81097 13.998 8.81097C13.2733 8.81097 12.686 8.22371 12.686 7.499C12.686 6.77429 13.2733 6.18702 13.998 6.18702ZM13.998 11.8098C15.8535 11.8098 17.809 12.7219 17.809 13.1217V13.809H10.187V13.1217C10.187 12.7219 12.1425 11.8098 13.998 11.8098ZM13.998 5C12.6173 5 11.499 6.1183 11.499 7.499C11.499 8.8797 12.6173 9.998 13.998 9.998C15.3787 9.998 16.497 8.8797 16.497 7.499C16.497 6.1183 15.3787 5 13.998 5ZM13.998 10.6227C12.3299 10.6227 9 11.4599 9 13.1217V14.996H18.996V13.1217C18.996 11.4599 15.6661 10.6227 13.998 10.6227Z" fill="#00A0C7"/>
</g>
</svg>
