<svg width="30" height="30" viewBox="0 0 30 30" fill="none" xmlns="http://www.w3.org/2000/svg">
<g clip-path="url(#clip0_1515_29027)">
<path d="M15.4801 13.9C13.2101 13.31 12.4801 12.7 12.4801 11.75C12.4801 10.66 13.4901 9.9 15.1801 9.9C16.9601 9.9 17.6201 10.75 17.6801 12H19.8901C19.8201 10.28 18.7701 8.7 16.6801 8.19V6H13.6801V8.16C11.7401 8.58 10.1801 9.84 10.1801 11.77C10.1801 14.08 12.0901 15.23 14.8801 15.9C17.3801 16.5 17.8801 17.38 17.8801 18.31C17.8801 19 17.3901 20.1 15.1801 20.1C13.1201 20.1 12.3101 19.18 12.2001 18H10.0001C10.1201 20.19 11.7601 21.42 13.6801 21.83V24H16.6801V21.85C18.6301 21.48 20.1801 20.35 20.1801 18.3C20.1801 15.46 17.7501 14.49 15.4801 13.9Z" fill="#00A0C7"/>
</g>
<rect x="1.5" y="1.5" width="27" height="27" rx="13.5" stroke="#00A0C7" stroke-width="3"/>
<defs>
<clipPath id="clip0_1515_29027">
<rect x="3" y="3" width="24" height="24" rx="12" fill="white"/>
</clipPath>
</defs>
</svg>
