<svg width="24" height="24" viewBox="0 0 24 24" fill="none" xmlns="http://www.w3.org/2000/svg">
<g clip-path="url(#clip0_268_5661)">
<path d="M16.608 14.172C16.608 15.012 16.847 15.347 17.472 15.347C18.865 15.347 19.752 13.572 19.752 10.62C19.752 6.10801 16.464 3.94801 12.359 3.94801C8.136 3.94801 4.295 6.78001 4.295 12.132C4.295 17.244 7.65499 20.028 12.815 20.028C14.567 20.028 15.743 19.836 17.542 19.236L17.928 20.843C16.152 21.42 14.254 21.587 12.791 21.587C6.023 21.587 2.39799 17.867 2.39799 12.131C2.39799 6.34701 6.599 2.41101 12.383 2.41101C18.407 2.41101 21.598 6.01101 21.598 10.427C21.598 14.171 20.423 17.027 16.727 17.027C15.046 17.027 13.943 16.355 13.799 14.866C13.367 16.522 12.215 17.027 10.654 17.027C8.566 17.027 6.814 15.418 6.814 12.179C6.814 8.91501 8.351 6.89901 11.111 6.89901C12.575 6.89901 13.487 7.47501 13.893 8.38701L14.59 7.11501H16.606V14.172H16.608ZM13.657 11.004C13.657 9.68501 12.672 9.13201 11.856 9.13201C10.968 9.13201 9.98499 9.85101 9.98499 11.964C9.98499 13.644 10.729 14.58 11.856 14.58C12.648 14.58 13.657 14.076 13.657 12.684V11.004Z" fill="#00A0C7"/>
</g>
<defs>
<clipPath id="clip0_268_5661">
<rect width="20" height="20" fill="white" transform="translate(2 2)"/>
</clipPath>
</defs>
</svg>
