<svg width="24" height="24" viewBox="0 0 24 24" fill="none" xmlns="http://www.w3.org/2000/svg">
<mask id="mask0_259_9923" style="mask-type:alpha" maskUnits="userSpaceOnUse" x="0" y="0" width="24" height="24">
<rect width="24" height="24" fill="#D9D9D9"/>
</mask>
<g mask="url(#mask0_259_9923)">
<path d="M20.65 9.37495L19.25 7.97495L20 7.19995L16.8 3.99995L16.025 4.74995L14.6 3.32495L15.35 2.54995C15.7333 2.16662 16.2083 1.97912 16.775 1.98745C17.3417 1.99578 17.8167 2.19162 18.2 2.57495L21.425 5.79995C21.8083 6.18328 22 6.65412 22 7.21245C22 7.77078 21.8083 8.24162 21.425 8.62495L20.65 9.37495ZM8.64999 21.3999C8.26666 21.7833 7.79583 21.9749 7.23749 21.9749C6.67916 21.9749 6.20833 21.7833 5.82499 21.3999L2.59999 18.1749C2.21666 17.7916 2.02499 17.3208 2.02499 16.7624C2.02499 16.2041 2.21666 15.7333 2.59999 15.3499L3.34999 14.5999L4.77499 16.0249L3.99999 16.7749L7.22499 19.9999L7.97499 19.2249L9.39999 20.6499L8.64999 21.3999ZM18.575 12.9999L20 11.5749L12.425 3.99995L11 5.42495L18.575 12.9999ZM11.575 19.9999L13 18.5499L5.44999 10.9999L3.99999 12.4249L11.575 19.9999ZM11.425 14.1499L14.175 11.4249L12.575 9.82495L9.84999 12.5749L11.425 14.1499ZM13 21.3999C12.6167 21.7833 12.1417 21.9749 11.575 21.9749C11.0083 21.9749 10.5333 21.7833 10.15 21.3999L2.59999 13.8499C2.21666 13.4666 2.02499 12.9916 2.02499 12.4249C2.02499 11.8583 2.21666 11.3833 2.59999 10.9999L4.02499 9.57495C4.40833 9.19162 4.87916 8.99995 5.43749 8.99995C5.99583 8.99995 6.46666 9.19162 6.84999 9.57495L8.42499 11.1499L11.175 8.39995L9.59999 6.84995C9.21666 6.46662 9.02499 5.99162 9.02499 5.42495C9.02499 4.85828 9.21666 4.38328 9.59999 3.99995L11.025 2.57495C11.4083 2.19162 11.8792 1.99995 12.4375 1.99995C12.9958 1.99995 13.4667 2.19162 13.85 2.57495L21.425 10.1499C21.8083 10.5333 22 11.0041 22 11.5624C22 12.1208 21.8083 12.5916 21.425 12.9749L20 14.3999C19.6167 14.7833 19.1417 14.9749 18.575 14.9749C18.0083 14.9749 17.5333 14.7833 17.15 14.3999L15.6 12.8249L12.85 15.5749L14.425 17.1499C14.8083 17.5333 15 18.0041 15 18.5624C15 19.1208 14.8083 19.5916 14.425 19.9749L13 21.3999Z" fill="#00A0C7"/>
</g>
</svg>
