<svg width="24" height="24" viewBox="0 0 24 24" fill="none" xmlns="http://www.w3.org/2000/svg">
<mask id="mask0_259_9924" style="mask-type:alpha" maskUnits="userSpaceOnUse" x="0" y="0" width="24" height="24">
<rect width="24" height="24" fill="#D9D9D9"/>
</mask>
<g mask="url(#mask0_259_9924)">
<path d="M13.025 11.5L14.5 10.425L15.95 11.5L15.375 9.79995L16.85 8.72495H15.05L14.5 6.99995L13.95 8.72495H12.125L13.6 9.79995L13.025 11.5ZM12 17C13.3833 17 14.5625 16.5166 15.5375 15.55C16.5125 14.5833 17 13.4 17 12C17 11.8666 16.9958 11.7333 16.9875 11.6C16.9792 11.4666 16.9583 11.3333 16.925 11.2C16.7417 11.9833 16.3333 12.6291 15.7 13.1375C15.0667 13.6458 14.325 13.9 13.475 13.9C12.475 13.9 11.6333 13.5583 10.95 12.875C10.2667 12.1916 9.925 11.35 9.925 10.35C9.925 9.58329 10.1417 8.89578 10.575 8.28745C11.0083 7.67912 11.575 7.24995 12.275 6.99995H12C10.6 6.99995 9.41666 7.48745 8.45 8.46245C7.48333 9.43745 7 10.6166 7 12C7 13.4 7.48333 14.5833 8.45 15.55C9.41666 16.5166 10.6 17 12 17ZM12 23.3L8.65 20H4V15.35L0.699997 12L4 8.64995V3.99995H8.65L12 0.699951L15.35 3.99995H20V8.64995L23.3 12L20 15.35V20H15.35L12 23.3ZM12 20.5L14.5 18H18V14.5L20.5 12L18 9.49995V5.99995H14.5L12 3.49995L9.5 5.99995H6V9.49995L3.5 12L6 14.5V18H9.5L12 20.5Z" fill="#00A0C7"/>
</g>
</svg>
