<svg width="24" height="24" viewBox="0 0 24 24" fill="none" xmlns="http://www.w3.org/2000/svg">
<g clip-path="url(#clip0_1515_29116)">
<path d="M20 5.64941V11C20 16.0431 16.5556 20.7219 12 21.9639C7.44441 20.7219 4 16.0431 4 11V5.64941L12 2.09375L20 5.64941Z" stroke="#00A0C7" stroke-width="2"/>
<path d="M12.198 8.38698C12.9227 8.38698 13.51 8.97424 13.51 9.69895C13.51 10.4237 12.9227 11.0109 12.198 11.0109C11.4733 11.0109 10.886 10.4237 10.886 9.69895C10.886 8.97424 11.4733 8.38698 12.198 8.38698ZM12.198 14.0097C14.0535 14.0097 16.009 14.9219 16.009 15.3217V16.0089H8.38702V15.3217C8.38702 14.9219 10.3425 14.0097 12.198 14.0097ZM12.198 7.19995C10.8173 7.19995 9.699 8.31825 9.699 9.69895C9.699 11.0796 10.8173 12.198 12.198 12.198C13.5787 12.198 14.697 11.0796 14.697 9.69895C14.697 8.31825 13.5787 7.19995 12.198 7.19995ZM12.198 12.8227C10.5299 12.8227 7.2 13.6599 7.2 15.3217V17.1959H17.196V15.3217C17.196 13.6599 13.8661 12.8227 12.198 12.8227Z" fill="#00A0C7"/>
</g>
<defs>
<clipPath id="clip0_1515_29116">
<rect width="24" height="24" fill="white"/>
</clipPath>
</defs>
</svg>
