<svg width="24" height="24" viewBox="0 0 24 24" fill="none" xmlns="http://www.w3.org/2000/svg">
<g clip-path="url(#clip0_1515_29113)">
<path d="M13.6903 3.15002L14.0175 5.45667L14.078 5.88342L14.4764 6.04651C14.997 6.25896 15.4683 6.53597 15.9257 6.8844L16.2645 7.14319L16.66 6.98401L18.8192 6.11487L20.5067 9.03479L18.6659 10.4733L18.3173 10.7457L18.3876 11.1823C18.4289 11.4405 18.4501 11.7129 18.4501 11.9996C18.4501 12.2866 18.4288 12.5682 18.3954 12.8463L18.3456 13.2643L18.6747 13.524L20.494 14.9625L18.8075 17.8834L16.6473 17.0162L16.2538 16.858L15.9159 17.1139C15.4669 17.4534 14.9829 17.7422 14.4647 17.9537L14.0653 18.1168L14.0057 18.5426L13.6786 20.8502H10.3094L9.9823 18.5426L9.92175 18.1168L9.52332 17.9537L9.14148 17.7819C8.76807 17.5979 8.41699 17.3771 8.0741 17.1158L7.73523 16.8571L7.3407 17.0162L5.17957 17.8834L3.49304 14.9635L5.33386 13.527L5.6825 13.2545L5.61218 12.818C5.57096 12.5604 5.54968 12.2753 5.54968 11.9996C5.54971 11.7416 5.58045 11.4599 5.62488 11.1823L5.69421 10.7457L5.34558 10.4733L3.50476 9.03577L5.19226 6.11487L7.35242 6.98401L7.74597 7.14221L8.08386 6.88635C8.53275 6.54695 9.01691 6.25803 9.53503 6.04651L9.93445 5.88342L9.995 5.45667L10.3212 3.15002H13.6903Z" stroke="#00A0C7" stroke-width="1.5"/>
</g>
<defs>
<clipPath id="clip0_1515_29113">
<rect width="24" height="24" fill="white"/>
</clipPath>
</defs>
</svg>
