<svg width="24" height="24" viewBox="0 0 24 24" fill="none" xmlns="http://www.w3.org/2000/svg">
<mask id="mask0_268_6942" style="mask-type:alpha" maskUnits="userSpaceOnUse" x="0" y="0" width="24" height="24">
<rect width="24" height="24" fill="#D9D9D9"/>
</mask>
<g mask="url(#mask0_268_6942)">
<path d="M10.55 19.7L12 21L13.45 19.7C15.1333 18.1834 16.525 16.875 17.625 15.775C18.725 14.675 19.6 13.6875 20.25 12.8125C20.9 11.9375 21.3542 11.1334 21.6125 10.4C21.8708 9.66669 22 8.91669 22 8.15002C22 6.58336 21.475 5.27502 20.425 4.22502C19.375 3.17502 18.0667 2.65002 16.5 2.65002C15.6333 2.65002 14.8083 2.83336 14.025 3.20002C13.2417 3.56669 12.5667 4.08336 12 4.75002C11.4333 4.08336 10.7583 3.56669 9.975 3.20002C9.19167 2.83336 8.36667 2.65002 7.5 2.65002C5.93333 2.65002 4.625 3.17502 3.575 4.22502C2.525 5.27502 2 6.58336 2 8.15002C2 8.91669 2.12917 9.66669 2.3875 10.4C2.64583 11.1334 3.1 11.9375 3.75 12.8125C4.4 13.6875 5.275 14.675 6.375 15.775C7.475 16.875 8.86667 18.1834 10.55 19.7Z" fill="#00A0C7"/>
</g>
</svg>
