<svg width="44" height="44" viewBox="0 0 44 44" fill="none" xmlns="http://www.w3.org/2000/svg">
<mask id="mask0_268_6951" style="mask-type:alpha" maskUnits="userSpaceOnUse" x="0" y="0" width="44" height="44">
<rect width="44" height="44" fill="#D9D9D9"/>
</mask>
<g mask="url(#mask0_268_6951)">
<path d="M22 38.4999L19.3417 36.1166C16.2556 33.3361 13.7042 30.9374 11.6875 28.9208C9.67083 26.9041 8.06666 25.0937 6.875 23.4895C5.68333 21.8854 4.85069 20.4111 4.37708 19.0666C3.90347 17.7222 3.66666 16.3472 3.66666 14.9416C3.66666 12.0694 4.62916 9.67078 6.55416 7.74578C8.47916 5.82078 10.8778 4.85828 13.75 4.85828C15.3389 4.85828 16.8514 5.19439 18.2875 5.86661C19.7236 6.53883 20.9611 7.48605 22 8.70828C23.0389 7.48605 24.2764 6.53883 25.7125 5.86661C27.1486 5.19439 28.6611 4.85828 30.25 4.85828C33.1222 4.85828 35.5208 5.82078 37.4458 7.74578C39.3708 9.67078 40.3333 12.0694 40.3333 14.9416C40.3333 16.3472 40.0965 17.7222 39.6229 19.0666C39.1493 20.4111 38.3167 21.8854 37.125 23.4895C35.9333 25.0937 34.3292 26.9041 32.3125 28.9208C30.2958 30.9374 27.7444 33.3361 24.6583 36.1166L22 38.4999Z" fill="#00A0C7"/>
</g>
</svg>
