<svg width="24" height="24" viewBox="0 0 24 24" fill="none" xmlns="http://www.w3.org/2000/svg">
<g clip-path="url(#clip0_268_5663)">
<path d="M22 4.43536C21.2511 4.84175 20.4567 5.1085 19.6433 5.22675C20.4905 4.60474 21.1411 3.61976 21.4474 2.44617C20.642 3.03161 19.7608 3.44409 18.8419 3.66579C18.0934 2.68904 17.027 2.07861 15.8468 2.07861C13.5807 2.07861 11.7434 4.32895 11.7434 7.10445C11.7434 7.49842 11.7798 7.88196 11.8497 8.24991C8.43953 8.04024 5.41609 6.03938 3.39227 2.99861C3.03914 3.74091 2.8368 4.60436 2.8368 5.52531C2.8368 7.26904 3.56125 8.80732 4.66219 9.70866C4.01059 9.68367 3.37332 9.4681 2.80359 9.07995C2.80336 9.10101 2.80336 9.12206 2.80336 9.14321C2.80336 11.5783 4.21773 13.6097 6.09477 14.0714C5.49054 14.2727 4.85674 14.3022 4.2418 14.1576C4.76391 16.1543 6.2793 17.6073 8.07477 17.648C6.67047 18.9959 4.90117 19.7995 2.97883 19.7995C2.64758 19.7995 2.32102 19.7756 2 19.7292C3.81586 21.1553 5.97266 21.9873 8.28984 21.9873C15.8373 21.9873 19.9644 14.3289 19.9644 7.68732C19.9644 7.46933 19.9605 7.25259 19.9525 7.03708C20.7558 6.32578 21.4492 5.44475 22 4.43536Z" fill="#55ACEE"/>
</g>
<defs>
<clipPath id="clip0_268_5663">
<rect width="20" height="20" fill="white" transform="translate(2 2)"/>
</clipPath>
</defs>
</svg>
