<svg width="24" height="24" viewBox="0 0 24 24" fill="none" xmlns="http://www.w3.org/2000/svg">
<path d="M15.6 8.4C19.2 8.4 21 6.6 21 3C17.4 3 15.6 4.8 15.6 8.4Z" stroke="#00A0C7" stroke-width="2" stroke-linecap="round" stroke-linejoin="round"/>
<path d="M16.8691 4.43102C15.0015 3.22958 12.7556 2.76106 10.5633 3.11556C8.37109 3.47005 6.38731 4.62254 4.99349 6.35138C3.59967 8.08021 2.89424 10.2633 3.01286 12.4809C3.13147 14.6984 4.06576 16.7938 5.63605 18.3641C7.20634 19.9344 9.30174 20.8687 11.5193 20.9873C13.7368 21.1059 15.92 20.4005 17.6488 19.0067C19.3776 17.6129 20.5301 15.6291 20.8846 13.4368C21.2391 11.2446 20.7706 8.99868 19.5691 7.13103" stroke="#00A0C7" stroke-width="2" stroke-linecap="round" stroke-linejoin="round"/>
<path d="M3.00015 3C5.7169 5.16724 7.92922 7.89999 9.48341 11.0084C11.0376 14.1168 11.8964 17.5263 12.0002 21C12.8102 14.862 13.3502 12.45 15.6002 8.4" stroke="#00A0C7" stroke-width="2" stroke-linecap="round" stroke-linejoin="round"/>
</svg>
