<svg width="24" height="24" viewBox="0 0 24 24" fill="none" xmlns="http://www.w3.org/2000/svg">
<path d="M3.98159 3.59998C3.10799 3.59998 2.39999 4.30798 2.39999 5.18158V9.59998C2.39988 11.0848 2.95031 12.5169 3.94486 13.6194C4.93941 14.7219 6.30743 15.4164 7.78439 15.5688C7.39768 14.6268 7.19914 13.6182 7.19999 12.6C7.19999 11.604 7.38719 10.6512 7.72799 9.77518L6.17399 8.22478C6.11821 8.169 6.07396 8.10277 6.04377 8.02988C6.01357 7.95699 5.99804 7.87887 5.99804 7.79998C5.99804 7.72109 6.01357 7.64297 6.04377 7.57008C6.07396 7.49719 6.11821 7.43097 6.17399 7.37518C6.22978 7.3194 6.29601 7.27514 6.36889 7.24495C6.44178 7.21476 6.5199 7.19922 6.59879 7.19922C6.67769 7.19922 6.75581 7.21476 6.82869 7.24495C6.90158 7.27514 6.96781 7.3194 7.02359 7.37518L8.28119 8.63398C9.2313 7.02762 10.7243 5.8138 12.4908 5.21158C11.3815 4.17404 9.91885 3.5978 8.39999 3.59998H3.98159ZM9.92759 16.824L7.36319 19.3884C7.30589 19.4437 7.26018 19.5099 7.22873 19.5831C7.19729 19.6563 7.18074 19.7351 7.18004 19.8147C7.17935 19.8944 7.19453 19.9734 7.2247 20.0472C7.25487 20.1209 7.29942 20.1879 7.35576 20.2442C7.41209 20.3006 7.47908 20.3451 7.55282 20.3753C7.62656 20.4054 7.70557 20.4206 7.78523 20.4199C7.8649 20.4192 7.94363 20.4027 8.01684 20.3712C8.09004 20.3398 8.15625 20.2941 8.21159 20.2368L10.776 17.6724C11.7398 18.4752 12.9125 18.9867 14.1566 19.147C15.4008 19.3073 16.6648 19.1097 17.8006 18.5774C18.9365 18.0451 19.8972 17.2002 20.57 16.1415C21.2429 15.0829 21.6002 13.8544 21.6 12.6V7.69198C21.6 6.75598 20.844 5.99998 19.908 5.99998H15C13.7456 5.99977 12.5171 6.35703 11.4585 7.02993C10.3998 7.70282 9.55485 8.66347 9.02255 9.79933C8.49026 10.9352 8.29268 12.1992 8.45297 13.4433C8.61326 14.6875 9.12478 15.8601 9.92759 16.824ZM15.4236 13.0248L11.6292 16.8192C11.3158 16.5688 11.0312 16.2842 10.7808 15.9708L14.5752 12.1752C14.6877 12.0625 14.8404 11.9992 14.9996 11.999C15.1588 11.9989 15.3115 12.0621 15.4242 12.1746C15.5369 12.2871 15.6002 12.4397 15.6003 12.599C15.6004 12.7582 15.5373 12.9109 15.4248 13.0236" fill="#00A0C7"/>
</svg>
